<svg width="1976" height="1112" viewBox="0 0 1976 1112" fill="none" xmlns="http://www.w3.org/2000/svg">
<rect width="1976" height="1112" fill="#143CDB"/>
<g opacity="0.2" clip-path="url(#clip0_714_32268)">
<g clip-path="url(#clip1_714_32268)">
<path d="M1230.97 912.338H1253.59V915.421H1244.13V943.582H1240.63V915.421H1231.18V912.338H1230.97ZM1282.16 912.338L1272.5 928.577L1262.84 912.338H1259.13V943.377H1262.63V918.71L1270.85 932.482H1274.14L1282.36 918.71V943.377H1285.86V912.338H1282.16ZM873.719 301.22C871.252 294.232 861.796 264.22 861.796 244.487C861.796 208.926 897.563 192.481 908.252 187.137C935.18 173.776 965.807 171.104 988.83 171.104C1011.85 171.104 1042.48 173.776 1069.41 187.137C1080.1 192.481 1115.86 208.926 1115.86 244.487C1115.86 264.22 1106.61 294.232 1103.94 301.22C1118.74 261.137 1056.66 227.015 988.83 227.015C920.996 227.015 858.919 261.137 873.719 301.22ZM1156.77 527.949C1129.22 519.726 1097.16 513.765 1062.01 510.065C1061.19 470.393 1028.71 438.326 988.83 438.326C948.952 438.326 916.474 470.393 915.652 510.065C880.502 513.56 848.435 519.726 820.891 527.949C817.808 503.076 818.013 479.232 823.152 458.676C825.824 447.782 829.73 437.71 834.252 428.665C832.402 412.221 827.674 350.348 856.863 324.037C879.885 303.276 918.119 305.332 933.741 314.787V297.109C933.741 281.282 958.407 268.331 988.624 268.331C1019.05 268.331 1043.51 281.282 1043.51 297.109V314.787C1059.34 305.332 1097.36 303.276 1120.39 324.037C1149.78 350.348 1145.05 412.221 1143.2 428.665C1147.93 437.71 1151.63 447.782 1154.3 458.676C1159.44 479.232 1159.65 502.871 1156.77 527.949ZM933.946 343.976C914.007 332.876 884.819 329.998 870.43 354.871C865.085 364.121 862.619 380.359 863.441 391.459C883.585 373.371 908.457 362.065 933.946 355.898V343.976ZM1107.23 354.665C1092.84 329.793 1063.86 332.67 1043.71 343.77V355.487C1069.2 361.859 1094.07 373.165 1114.22 391.048C1115.04 380.154 1112.57 364.121 1107.23 354.665ZM926.341 519.315C930.246 550.354 956.763 574.404 988.83 574.404C1020.9 574.404 1047.41 550.354 1051.32 519.315C1031.17 517.465 1010.21 516.437 988.83 516.437C967.452 516.437 946.485 517.465 926.341 519.315ZM988.83 448.398C954.913 448.398 927.163 475.326 925.93 509.037C946.074 507.187 967.041 506.365 988.83 506.365C1010.62 506.365 1031.59 507.393 1051.73 509.037C1050.5 475.532 1022.75 448.398 988.83 448.398ZM1333.34 551.999C1333.34 674.51 1305.18 777.904 1251.94 851.082C1191.71 933.716 1103.32 975.649 988.83 975.649C874.335 975.649 785.946 933.716 725.719 851.082C672.48 777.904 644.319 674.51 644.319 551.999C644.319 429.487 672.48 326.093 725.513 252.915C785.535 170.281 874.13 128.348 988.624 128.348C1103.12 128.348 1191.71 170.281 1251.73 252.915C1305.18 326.093 1333.34 429.487 1333.34 551.999ZM1154.92 581.393C1155.95 577.693 1156.77 573.993 1157.59 570.293L1324.09 588.588C1324.71 576.665 1324.91 564.537 1324.91 551.999C1324.91 540.899 1324.71 529.799 1324.3 519.11L1163.35 540.282C1163.96 536.376 1164.58 532.471 1164.99 528.771L1323.68 507.804C1322.24 483.137 1319.57 459.293 1315.66 436.682L1166.84 494.237C1166.84 490.126 1166.64 486.221 1166.22 482.315L1313.61 425.171C1308.47 399.065 1301.89 374.193 1293.67 350.965L1159.03 445.315C1157.8 441.615 1156.36 437.915 1154.92 434.421L1289.56 340.276C1279.07 313.348 1266.33 288.887 1251.53 266.893L1151.84 380.154C1151.84 379.743 1151.84 379.537 1151.84 379.126C1151.42 374.398 1150.6 369.876 1149.78 365.354L1244.75 257.026C1227.07 232.77 1206.92 212.215 1184.11 195.359L1122.03 314.376C1118.95 311.909 1115.66 310.059 1112.37 308.415L1174.86 188.781C1150.6 172.131 1123.88 159.592 1094.28 150.959L1085.65 186.52C1081.54 184.054 1078.04 182.409 1075.37 180.97L1083.39 148.081C1055.84 141.092 1026.24 137.187 994.38 136.981V163.087C992.53 163.087 990.68 163.087 988.83 163.087C986.98 163.087 985.13 163.087 983.28 163.087V136.776C951.419 137.187 921.819 140.887 894.274 147.876L902.291 180.765C899.619 181.998 896.124 183.848 892.013 186.315L883.38 150.754C853.985 159.387 827.058 172.131 802.802 188.576L865.291 308.209C862.002 309.854 858.713 311.909 855.63 314.17L793.552 195.565C770.941 212.42 750.591 232.976 732.913 257.231L827.88 365.559C827.058 369.876 826.441 374.398 825.824 379.332C825.824 379.743 825.824 379.948 825.824 380.359L726.335 266.893C711.535 288.887 698.791 313.348 688.308 340.276L822.946 434.421C821.508 437.915 820.069 441.615 818.835 445.315L684.197 351.171C675.974 374.398 669.191 399.065 664.258 425.376L811.435 482.521C811.23 486.426 811.024 490.332 810.819 494.443L661.997 436.476C658.091 459.293 655.419 482.932 653.98 507.598L812.669 528.565C813.08 532.265 813.696 536.171 814.313 540.076L653.363 519.11C652.952 530.004 652.747 540.899 652.747 551.999C652.747 564.332 652.952 576.46 653.569 588.588L820.069 570.293C820.891 573.993 821.713 577.693 822.741 581.393L654.185 599.893C655.83 624.354 658.502 647.788 662.408 670.193L830.552 609.143C831.58 612.638 832.813 616.338 834.046 619.832L664.669 681.499C669.808 707.193 676.385 731.243 684.608 754.06L843.708 647.788C844.941 651.282 846.38 654.982 847.819 658.682L688.924 764.954C699.202 791.06 711.535 814.904 725.924 836.488L860.152 689.721C861.796 693.421 863.441 697.327 865.085 701.232L732.502 845.943C732.502 846.149 732.708 846.149 732.708 846.355C749.769 869.788 769.296 889.932 791.085 906.582L882.558 739.671C884.613 743.988 886.669 748.099 888.724 752.004L800.335 913.16C822.124 928.577 846.174 940.499 872.28 949.338C872.691 946.255 873.924 942.966 875.774 939.266C880.296 930.427 914.419 873.488 919.969 839.982C927.163 796.61 904.963 770.504 880.913 716.649C861.385 673.482 832.196 602.976 822.33 538.432C849.669 530.21 881.53 524.043 916.269 520.343C920.585 556.521 951.419 584.682 988.83 584.682C1026.24 584.682 1057.07 556.521 1061.39 520.343C1096.13 524.043 1127.99 530.21 1155.33 538.432C1145.46 602.976 1116.27 673.482 1096.95 716.649C1072.7 770.504 1050.7 796.61 1057.9 839.982C1063.45 873.488 1097.57 930.427 1102.09 939.266C1103.94 942.966 1105.17 946.46 1105.59 949.338C1131.69 940.499 1155.74 928.371 1177.53 913.16L1089.14 752.004C1091.2 748.099 1093.25 743.988 1095.31 739.671L1186.78 906.582C1208.57 889.932 1228.1 869.788 1245.16 846.355C1245.16 846.149 1245.36 846.149 1245.36 845.943L1112.78 701.027C1114.42 697.121 1116.07 693.421 1117.71 689.515L1252.15 836.077C1266.53 814.699 1278.87 790.649 1289.15 764.543L1130.05 658.682C1131.49 654.982 1132.72 651.488 1134.16 647.788L1293.05 754.06C1301.27 731.449 1307.85 707.193 1312.99 681.499L1143.61 619.832C1144.85 616.132 1145.87 612.638 1147.11 609.143L1315.05 670.193C1318.95 647.788 1321.83 624.149 1323.27 599.688L1154.92 581.393Z" fill="white"/>
</g>
</g>
<defs>
<clipPath id="clip0_714_32268">
<rect width="689" height="848" fill="white" transform="translate(644 128)"/>
</clipPath>
<clipPath id="clip1_714_32268">
<rect width="688.817" height="847.301" fill="white" transform="matrix(1 0 0 -1 644.319 975.649)"/>
</clipPath>
</defs>
</svg>
