<svg width="17" height="16" viewBox="0 0 17 16" fill="none" xmlns="http://www.w3.org/2000/svg">
<circle cx="8.24992" cy="7.99998" r="6.66667" fill="white"/>
<path fill-rule="evenodd" clip-rule="evenodd" d="M6.38289 7.12055L7.85801 6.04795C8.09175 5.87799 8.40841 5.87799 8.64215 6.04795L10.1173 7.12055C10.3507 7.29029 10.4484 7.59102 10.3593 7.86562L9.79561 9.60175C9.70641 9.87649 9.45041 10.0626 9.16155 10.0626H7.33861C7.04975 10.0626 6.79372 9.87649 6.70452 9.60175L6.14087 7.86562C6.05173 7.59102 6.14943 7.29029 6.38289 7.12055ZM8.25008 14.0008C4.94125 14.0008 2.24927 11.309 2.24927 8.00002C2.24927 4.69119 4.94125 1.99921 8.25008 1.99921C11.559 1.99921 14.2509 4.69119 14.2509 8.00002C14.2509 11.309 11.559 14.0008 8.25008 14.0008ZM8.25008 12.9999C7.79735 12.9999 7.35848 12.9394 6.94115 12.8261L6.14977 11.3666C6.05377 11.1896 5.88289 11.0654 5.68484 11.0288L4.06242 10.7291C3.58743 10.0027 3.29619 9.14575 3.25523 8.22489L4.38677 7.03382C4.52548 6.88775 4.59075 6.68689 4.56435 6.48722L4.35097 4.87359C4.90888 4.17919 5.64812 3.63636 6.49614 3.31766L7.96268 4.0182C8.14441 4.10501 8.35568 4.10501 8.53741 4.0182L10.004 3.31765C10.852 3.63633 11.5912 4.17913 12.1491 4.87351L11.9357 6.48722C11.9093 6.68689 11.9746 6.88775 12.1133 7.03382L13.2449 8.22489C13.2039 9.14575 12.9127 10.0027 12.4377 10.729L10.8153 11.0288C10.6172 11.0654 10.4463 11.1896 10.3503 11.3666L9.55901 12.8261C9.14168 12.9394 8.70281 12.9999 8.25008 12.9999Z" fill="black"/>
<path fill-rule="evenodd" clip-rule="evenodd" d="M9.58325 12C9.58325 10.5272 10.7772 9.33331 12.2499 9.33331C13.7227 9.33331 14.9166 10.5272 14.9166 12C14.9166 13.4727 13.7227 14.6666 12.2499 14.6666C10.7772 14.6666 9.58325 13.4727 9.58325 12Z" fill="#004B84"/>
<path d="M11.1829 11.3658C11.1829 10.7924 11.6282 10.3933 12.2605 10.3933C12.8634 10.3933 13.273 10.7609 13.273 11.265C13.273 11.6179 13.1196 11.8637 12.5987 12.3741L11.9475 13.0148V13.0505H13.3171V13.5H11.2123V13.1345L12.2626 12.0779C12.6449 11.6914 12.7373 11.5465 12.7373 11.3154C12.7373 11.0403 12.5483 10.8281 12.2311 10.8281C11.9013 10.8281 11.6913 11.0466 11.6913 11.3658H11.1829Z" fill="white"/>
</svg>
