<svg width="17" height="16" viewBox="0 0 17 16" fill="none" xmlns="http://www.w3.org/2000/svg">
<circle cx="8.25016" cy="8.00004" r="6.66667" fill="#F9BF4B"/>
<path fill-rule="evenodd" clip-rule="evenodd" d="M6.38265 7.12049L7.85777 6.04789C8.0915 5.87793 8.40817 5.87793 8.6419 6.04789L10.117 7.12049C10.3505 7.29023 10.4482 7.59096 10.359 7.86556L9.79537 9.60169C9.70617 9.87643 9.45017 10.0625 9.1613 10.0625H7.33837C7.0495 10.0625 6.79348 9.87643 6.70428 9.60169L6.14062 7.86556C6.05149 7.59096 6.14918 7.29023 6.38265 7.12049ZM8.24984 14.0008C4.941 14.0008 2.24902 11.3089 2.24902 7.99996C2.24902 4.69113 4.941 1.99915 8.24984 1.99915C11.5588 1.99915 14.2506 4.69113 14.2506 7.99996C14.2506 11.3089 11.5588 14.0008 8.24984 14.0008ZM8.24984 12.9998C7.7971 12.9998 7.35824 12.9393 6.9409 12.826L6.14953 11.3666C6.05353 11.1895 5.88264 11.0654 5.6846 11.0288L4.06218 10.729C3.58718 10.0026 3.29594 9.14569 3.25499 8.22483L4.38652 7.03376C4.52524 6.88769 4.59051 6.68683 4.56411 6.48716L4.35072 4.87353C4.90864 4.17913 5.64788 3.6363 6.4959 3.3176L7.96244 4.01814C8.14417 4.10495 8.35544 4.10495 8.53717 4.01814L10.0038 3.31759C10.8518 3.63627 11.591 4.17907 12.1489 4.87345L11.9355 6.48716C11.9091 6.68683 11.9744 6.88769 12.1131 7.03376L13.2447 8.22483C13.2037 9.14569 12.9125 10.0026 12.4375 10.729L10.815 11.0288C10.617 11.0654 10.4461 11.1895 10.3501 11.3666L9.55877 12.826C9.14144 12.9393 8.70257 12.9998 8.24984 12.9998Z" fill="black"/>
<path fill-rule="evenodd" clip-rule="evenodd" d="M9.5835 11.9999C9.5835 10.5272 10.7774 9.33325 12.2502 9.33325C13.7229 9.33325 14.9168 10.5272 14.9168 11.9999C14.9168 13.4727 13.7229 14.6666 12.2502 14.6666C10.7774 14.6666 9.5835 13.4727 9.5835 11.9999Z" fill="#8C0000"/>
<path d="M11.1829 11.3658C11.1829 10.7924 11.6282 10.3933 12.2605 10.3933C12.8634 10.3933 13.273 10.7609 13.273 11.265C13.273 11.6179 13.1196 11.8637 12.5987 12.3741L11.9475 13.0148V13.0505H13.3171V13.5H11.2123V13.1345L12.2626 12.0779C12.6449 11.6914 12.7373 11.5465 12.7373 11.3154C12.7373 11.0403 12.5483 10.8281 12.2311 10.8281C11.9013 10.8281 11.6913 11.0466 11.6913 11.3658H11.1829Z" fill="white"/>
</svg>
