<svg width="232" height="241" viewBox="0 0 232 241" fill="none" xmlns="http://www.w3.org/2000/svg">
<g opacity="0.8" filter="url(#filter0_f_2801_613)">
<path d="M218.28 236.39L197.639 232.299C197.552 232.281 197.463 232.273 197.374 232.273L27.1443 232.273C27.0312 232.273 26.9186 232.287 26.8091 232.315L10.6792 236.405C9.12313 236.8 9.4091 239.091 11.0144 239.091L218.015 239.091C219.663 239.091 219.897 236.71 218.28 236.39Z" fill="black" fill-opacity="0.4"/>
</g>
<g filter="url(#filter1_d_2801_613)">
<rect x="21.9091" y="8.63632" width="196.364" height="38.1818" rx="8.18182" fill="#186CFF"/>
<rect x="77.8181" y="22.2727" width="70.9091" height="10.9091" rx="5.45455" fill="white" fill-opacity="0.25"/>
</g>
<g filter="url(#filter2_d_2801_613)">
<rect x="21.9091" y="63.1818" width="196.364" height="38.1818" rx="8.18182" fill="#186CFF"/>
<rect x="77.8181" y="76.8181" width="70.9091" height="10.9091" rx="5.45455" fill="white" fill-opacity="0.25"/>
</g>
<g filter="url(#filter3_d_2801_613)">
<rect x="21.9091" y="117.727" width="196.364" height="38.1818" rx="8.18182" fill="#19C201"/>
<rect x="77.8181" y="131.364" width="70.9091" height="10.9091" rx="5.45455" fill="white" fill-opacity="0.25"/>
<rect x="185.567" y="138.386" width="3.8047" height="10.327" transform="rotate(-50 185.567 138.386)" fill="white"/>
<rect x="190.563" y="142.578" width="17.3929" height="3.8047" transform="rotate(-50 190.563 142.578)" fill="white"/>
</g>
<g filter="url(#filter4_d_2801_613)">
<rect x="21.9091" y="172.273" width="196.364" height="38.1818" rx="8.18182" fill="#186CFF"/>
<rect x="77.8181" y="185.909" width="70.9091" height="10.9091" rx="5.45455" fill="white" fill-opacity="0.25"/>
</g>
<g filter="url(#filter5_d_2801_613)">
<rect x="15.0909" y="4.54544" width="49.0909" height="46.3636" rx="10.9091" fill="#2F7BFF"/>
<rect x="15.6172" y="5.0717" width="48.0384" height="45.3111" rx="10.3828" stroke="url(#paint0_linear_2801_613)" stroke-width="1.05253"/>
<path d="M37.1818 29L41.8181 29L39.609 23L39.4727 23L37.1818 29ZM28.3181 37.1818L35.9545 18.0909L43.0454 18.0909L50.6818 37.1818L44.9545 37.1818L43.5909 33.6363L35.409 33.6363L34.0454 37.1818L28.3181 37.1818Z" fill="white"/>
</g>
<g filter="url(#filter6_d_2801_613)">
<rect x="15.0909" y="59.0909" width="49.0909" height="46.3636" rx="10.9091" fill="#2F7BFF"/>
<rect x="15.6172" y="59.6171" width="48.0384" height="45.3111" rx="10.3828" stroke="url(#paint1_linear_2801_613)" stroke-width="1.05253"/>
<path d="M45.5 81.9091C47.6546 82.5091 49.1818 83.9545 49.1818 86.2727L49.1818 86.5454C49.1818 90.0909 46.4546 91.7272 42.0909 91.7272L30.6364 91.7272L30.6364 72.6363L41.2727 72.6363C45.5546 72.6363 48.3637 74.2727 48.3637 77.5454L48.3637 77.8181C48.3637 79.8636 47.1364 81.0909 45.5 81.7727L45.5 81.9091ZM36.0909 87.2272L41.9546 87.2272C42.9091 87.2272 43.5909 86.8181 43.5909 85.7545L43.5909 85.7C43.5909 84.6363 42.9091 84.2272 41.9546 84.2272L36.0909 84.2272L36.0909 87.2272ZM36.0909 79.8636L41.2727 79.8636C42.2273 79.8636 42.9091 79.4545 42.9091 78.5272L42.9091 78.4727C42.9091 77.5454 42.2273 77.1363 41.2727 77.1363L36.0909 77.1363L36.0909 79.8636Z" fill="white"/>
</g>
<g filter="url(#filter7_d_2801_613)">
<rect x="15.0909" y="113.636" width="49.0909" height="46.3636" rx="10.9091" fill="#186CFF"/>
<rect x="15.0909" y="113.636" width="49.0909" height="46.3636" rx="10.9091" stroke="url(#paint2_linear_2801_613)" stroke-width="2.04545"/>
<path d="M29.409 136.455C29.409 131 33.2272 126.909 40.0181 126.909L40.0727 126.909C43.8636 126.909 46.5909 128 48.7727 129.909L46.0454 133.727C44.6818 132.364 42.5 131.545 40.1 131.545L40.0181 131.545C36.909 131.545 35 133.455 35 136.591L35 136.864C35 140 36.909 141.909 40.0181 141.909L40.1 141.909C42.5 141.909 44.6818 141.091 46.0454 139.727L48.7727 143.545C46.5909 145.455 43.8636 146.545 40.0727 146.545L40.0181 146.545C33.2272 146.545 29.409 142.455 29.409 137L29.409 136.455Z" fill="white"/>
</g>
<g filter="url(#filter8_d_2801_613)">
<rect x="15.0909" y="168.182" width="49.0909" height="46.3636" rx="10.9091" fill="#2F7BFF"/>
<rect x="15.6172" y="168.708" width="48.0384" height="45.3111" rx="10.3828" stroke="url(#paint3_linear_2801_613)" stroke-width="1.05253"/>
<path d="M39.9091 186.364L36.0909 186.364L36.0909 196.182L39.9091 196.182C43.1818 196.182 44.6818 194.136 44.6818 191.409L44.6818 191.136C44.6818 188.409 43.1818 186.364 39.9091 186.364ZM30.6364 200.818L30.6364 181.727L39.9091 181.727C46.7273 181.727 50.2727 185.818 50.2727 191L50.2727 191.545C50.2727 196.727 46.7273 200.818 39.9091 200.818L30.6364 200.818Z" fill="white"/>
</g>
<defs>
<filter id="filter0_f_2801_613" x="8.07226" y="230.695" width="212.884" height="9.97345" filterUnits="userSpaceOnUse" color-interpolation-filters="sRGB">
<feFlood flood-opacity="0" result="BackgroundImageFix"/>
<feBlend mode="normal" in="SourceGraphic" in2="BackgroundImageFix" result="shape"/>
<feGaussianBlur stdDeviation="0.788819" result="effect1_foregroundBlur_2801_613"/>
</filter>
<filter id="filter1_d_2801_613" x="15.9091" y="4.63632" width="208.364" height="50.1818" filterUnits="userSpaceOnUse" color-interpolation-filters="sRGB">
<feFlood flood-opacity="0" result="BackgroundImageFix"/>
<feColorMatrix in="SourceAlpha" type="matrix" values="0 0 0 0 0 0 0 0 0 0 0 0 0 0 0 0 0 0 127 0" result="hardAlpha"/>
<feOffset dy="2"/>
<feGaussianBlur stdDeviation="3"/>
<feColorMatrix type="matrix" values="0 0 0 0 0 0 0 0 0 0 0 0 0 0 0 0 0 0 0.12 0"/>
<feBlend mode="normal" in2="BackgroundImageFix" result="effect1_dropShadow_2801_613"/>
<feBlend mode="normal" in="SourceGraphic" in2="effect1_dropShadow_2801_613" result="shape"/>
</filter>
<filter id="filter2_d_2801_613" x="15.9091" y="59.1818" width="208.364" height="50.1818" filterUnits="userSpaceOnUse" color-interpolation-filters="sRGB">
<feFlood flood-opacity="0" result="BackgroundImageFix"/>
<feColorMatrix in="SourceAlpha" type="matrix" values="0 0 0 0 0 0 0 0 0 0 0 0 0 0 0 0 0 0 127 0" result="hardAlpha"/>
<feOffset dy="2"/>
<feGaussianBlur stdDeviation="3"/>
<feColorMatrix type="matrix" values="0 0 0 0 0 0 0 0 0 0 0 0 0 0 0 0 0 0 0.12 0"/>
<feBlend mode="normal" in2="BackgroundImageFix" result="effect1_dropShadow_2801_613"/>
<feBlend mode="normal" in="SourceGraphic" in2="effect1_dropShadow_2801_613" result="shape"/>
</filter>
<filter id="filter3_d_2801_613" x="15.9091" y="113.727" width="208.364" height="50.1818" filterUnits="userSpaceOnUse" color-interpolation-filters="sRGB">
<feFlood flood-opacity="0" result="BackgroundImageFix"/>
<feColorMatrix in="SourceAlpha" type="matrix" values="0 0 0 0 0 0 0 0 0 0 0 0 0 0 0 0 0 0 127 0" result="hardAlpha"/>
<feOffset dy="2"/>
<feGaussianBlur stdDeviation="3"/>
<feColorMatrix type="matrix" values="0 0 0 0 0 0 0 0 0 0 0 0 0 0 0 0 0 0 0.12 0"/>
<feBlend mode="normal" in2="BackgroundImageFix" result="effect1_dropShadow_2801_613"/>
<feBlend mode="normal" in="SourceGraphic" in2="effect1_dropShadow_2801_613" result="shape"/>
</filter>
<filter id="filter4_d_2801_613" x="15.9091" y="168.273" width="208.364" height="50.1818" filterUnits="userSpaceOnUse" color-interpolation-filters="sRGB">
<feFlood flood-opacity="0" result="BackgroundImageFix"/>
<feColorMatrix in="SourceAlpha" type="matrix" values="0 0 0 0 0 0 0 0 0 0 0 0 0 0 0 0 0 0 127 0" result="hardAlpha"/>
<feOffset dy="2"/>
<feGaussianBlur stdDeviation="3"/>
<feColorMatrix type="matrix" values="0 0 0 0 0 0 0 0 0 0 0 0 0 0 0 0 0 0 0.12 0"/>
<feBlend mode="normal" in2="BackgroundImageFix" result="effect1_dropShadow_2801_613"/>
<feBlend mode="normal" in="SourceGraphic" in2="effect1_dropShadow_2801_613" result="shape"/>
</filter>
<filter id="filter5_d_2801_613" x="9.09094" y="0.545441" width="61.0909" height="58.3636" filterUnits="userSpaceOnUse" color-interpolation-filters="sRGB">
<feFlood flood-opacity="0" result="BackgroundImageFix"/>
<feColorMatrix in="SourceAlpha" type="matrix" values="0 0 0 0 0 0 0 0 0 0 0 0 0 0 0 0 0 0 127 0" result="hardAlpha"/>
<feOffset dy="2"/>
<feGaussianBlur stdDeviation="3"/>
<feColorMatrix type="matrix" values="0 0 0 0 0 0 0 0 0 0 0 0 0 0 0 0 0 0 0.12 0"/>
<feBlend mode="normal" in2="BackgroundImageFix" result="effect1_dropShadow_2801_613"/>
<feBlend mode="normal" in="SourceGraphic" in2="effect1_dropShadow_2801_613" result="shape"/>
</filter>
<filter id="filter6_d_2801_613" x="9.09094" y="55.0909" width="61.0909" height="58.3636" filterUnits="userSpaceOnUse" color-interpolation-filters="sRGB">
<feFlood flood-opacity="0" result="BackgroundImageFix"/>
<feColorMatrix in="SourceAlpha" type="matrix" values="0 0 0 0 0 0 0 0 0 0 0 0 0 0 0 0 0 0 127 0" result="hardAlpha"/>
<feOffset dy="2"/>
<feGaussianBlur stdDeviation="3"/>
<feColorMatrix type="matrix" values="0 0 0 0 0 0 0 0 0 0 0 0 0 0 0 0 0 0 0.12 0"/>
<feBlend mode="normal" in2="BackgroundImageFix" result="effect1_dropShadow_2801_613"/>
<feBlend mode="normal" in="SourceGraphic" in2="effect1_dropShadow_2801_613" result="shape"/>
</filter>
<filter id="filter7_d_2801_613" x="8.06824" y="108.614" width="63.1364" height="60.4091" filterUnits="userSpaceOnUse" color-interpolation-filters="sRGB">
<feFlood flood-opacity="0" result="BackgroundImageFix"/>
<feColorMatrix in="SourceAlpha" type="matrix" values="0 0 0 0 0 0 0 0 0 0 0 0 0 0 0 0 0 0 127 0" result="hardAlpha"/>
<feOffset dy="2"/>
<feGaussianBlur stdDeviation="3"/>
<feColorMatrix type="matrix" values="0 0 0 0 0 0 0 0 0 0 0 0 0 0 0 0 0 0 0.12 0"/>
<feBlend mode="normal" in2="BackgroundImageFix" result="effect1_dropShadow_2801_613"/>
<feBlend mode="normal" in="SourceGraphic" in2="effect1_dropShadow_2801_613" result="shape"/>
</filter>
<filter id="filter8_d_2801_613" x="9.09094" y="164.182" width="61.0909" height="58.3636" filterUnits="userSpaceOnUse" color-interpolation-filters="sRGB">
<feFlood flood-opacity="0" result="BackgroundImageFix"/>
<feColorMatrix in="SourceAlpha" type="matrix" values="0 0 0 0 0 0 0 0 0 0 0 0 0 0 0 0 0 0 127 0" result="hardAlpha"/>
<feOffset dy="2"/>
<feGaussianBlur stdDeviation="3"/>
<feColorMatrix type="matrix" values="0 0 0 0 0 0 0 0 0 0 0 0 0 0 0 0 0 0 0.12 0"/>
<feBlend mode="normal" in2="BackgroundImageFix" result="effect1_dropShadow_2801_613"/>
<feBlend mode="normal" in="SourceGraphic" in2="effect1_dropShadow_2801_613" result="shape"/>
</filter>
<linearGradient id="paint0_linear_2801_613" x1="15.0544" y1="-0.315446" x2="23.7383" y2="22.4473" gradientUnits="userSpaceOnUse">
<stop stop-color="#5B97FF"/>
<stop offset="1" stop-color="#5492FF" stop-opacity="0"/>
</linearGradient>
<linearGradient id="paint1_linear_2801_613" x1="15.0544" y1="54.23" x2="23.7383" y2="76.9927" gradientUnits="userSpaceOnUse">
<stop stop-color="#5B97FF"/>
<stop offset="1" stop-color="#5492FF" stop-opacity="0"/>
</linearGradient>
<linearGradient id="paint2_linear_2801_613" x1="15.0909" y1="113.636" x2="61.3789" y2="162.647" gradientUnits="userSpaceOnUse">
<stop stop-color="#01BA5E"/>
<stop offset="0.3299" stop-color="#01BA5E"/>
<stop offset="0.33" stop-color="#FFCB01"/>
<stop offset="0.335" stop-color="#FFCB01"/>
<stop offset="0.66" stop-color="#FFCB01"/>
<stop offset="0.6701" stop-color="#FF0101"/>
<stop offset="1" stop-color="#FF0101"/>
</linearGradient>
<linearGradient id="paint3_linear_2801_613" x1="15.0544" y1="163.321" x2="23.7383" y2="186.084" gradientUnits="userSpaceOnUse">
<stop stop-color="#5B97FF"/>
<stop offset="1" stop-color="#5492FF" stop-opacity="0"/>
</linearGradient>
</defs>
</svg>
