<svg width="98" height="96" viewBox="0 0 98 96" fill="none" xmlns="http://www.w3.org/2000/svg">
<ellipse opacity="0.08" cx="52.9569" cy="44.1487" rx="30.9764" ry="29.8397" fill="white" fill-opacity="0.55"/>
<path d="M79.9131 38.3451C79.8714 38.0826 79.6168 37.9024 79.3443 37.9425L78.1688 38.1155C77.8963 38.1556 77.7092 38.4009 77.7508 38.6634C77.7924 38.9259 78.0471 39.1061 78.3196 39.066L79.4951 38.893C79.7676 38.8529 79.9547 38.6076 79.9131 38.3451Z" fill="#FFAF4E"/>
<path d="M64.2645 17.9752C64.0221 17.8489 63.7188 17.9356 63.5871 18.1688L63.0197 19.1736C62.888 19.4069 62.9778 19.6984 63.2202 19.8247C63.4627 19.9511 63.766 19.8644 63.8977 19.6312L64.465 18.6263C64.5967 18.3931 64.5069 18.1016 64.2645 17.9752Z" fill="#FFAF4E"/>
<path d="M72.3727 60.7115C72.5793 60.8873 72.5986 61.1908 72.4156 61.3894C72.2327 61.5881 71.9169 61.6066 71.7103 61.4309L70.8201 60.6738C70.6135 60.498 70.5942 60.1945 70.7772 59.9959C70.9601 59.7973 71.2759 59.7787 71.4825 59.9544L72.3727 60.7115Z" fill="#FFAF4E"/>
<path d="M48.954 70.2177C49.2293 70.2311 49.4639 70.027 49.4781 69.7618L49.539 68.6204C49.5532 68.3552 49.3415 68.1294 49.0662 68.116C48.7909 68.1026 48.5562 68.3067 48.5421 68.5719L48.4811 69.7133C48.467 69.9785 48.6787 70.2043 48.954 70.2177Z" fill="#FFAF4E"/>
<path d="M26.4865 58.6308C26.2571 58.778 25.9469 58.7185 25.7936 58.4978C25.6403 58.2771 25.702 57.9789 25.9314 57.8316L26.9205 57.1966C27.1499 57.0493 27.4601 57.1089 27.6134 57.3295C27.7667 57.5502 27.705 57.8485 27.4756 57.9958L26.4865 58.6308Z" fill="#FFAF4E"/>
<path d="M21.9433 34.2044C21.8614 34.4579 22.0085 34.727 22.2718 34.8054L23.4075 35.1436C23.6708 35.222 23.9507 35.0801 24.0326 34.8265C24.1145 34.573 23.9674 34.3039 23.704 34.2255L22.5684 33.8873C22.3051 33.8089 22.0252 33.9508 21.9433 34.2044Z" fill="#FFAF4E"/>
<path d="M38.7513 17.5942C38.6194 17.3613 38.7087 17.0692 38.9509 16.9419C39.193 16.8146 39.4962 16.9003 39.6281 17.1332L40.3473 18.4036C40.4792 18.6365 40.3899 18.9286 40.1478 19.0559C39.9056 19.1832 39.6024 19.0975 39.4706 18.8646L38.7513 17.5942Z" fill="#FFAF4E"/>
<path d="M38.2973 6.39054C38.6639 6.29669 39.04 6.50687 39.1374 6.85998L39.5712 8.43219C39.6686 8.7853 39.4504 9.14763 39.0838 9.24147C38.7173 9.33532 38.3412 9.12514 38.2437 8.77203L37.81 7.19982C37.7125 6.84671 37.9307 6.48438 38.2973 6.39054Z" fill="#B46D1F"/>
<path d="M75.4638 14.6117C75.7626 14.8367 75.816 15.2529 75.5831 15.5412L74.5476 16.8232C74.3146 17.1116 73.8836 17.1629 73.5848 16.9379C73.286 16.7128 73.2326 16.2967 73.4655 16.0083L74.501 14.7263C74.7339 14.438 75.165 14.3866 75.4638 14.6117Z" fill="#B46D1F"/>
<path d="M11.7711 29.0236C11.4273 28.8693 11.0193 29.0129 10.8599 29.3444C10.7005 29.676 10.8499 30.0698 11.1937 30.2242L12.7223 30.9105C13.0661 31.0648 13.474 30.9212 13.6334 30.5896C13.7929 30.2581 13.6434 29.8642 13.2996 29.7099L11.7711 29.0236Z" fill="#B46D1F"/>
<path d="M12.2837 64.4892C12.1147 64.1621 12.2528 63.7647 12.5922 63.6016L14.1 62.877C14.4394 62.7139 14.8515 62.8468 15.0205 63.1739C15.1895 63.501 15.0514 63.8984 14.712 64.0615L13.2043 64.7861C12.8649 64.9492 12.4527 64.8163 12.2837 64.4892Z" fill="#B46D1F"/>
<path d="M41.3166 86.5703C41.25 86.93 41.4987 87.2741 41.8719 87.3389C42.2452 87.4037 42.6018 87.1646 42.6684 86.8049L42.9647 85.2041C43.0313 84.8444 42.7827 84.5002 42.4094 84.4355C42.0362 84.3707 41.6796 84.6097 41.613 84.9694L41.3166 86.5703Z" fill="#B46D1F"/>
<path d="M77.6115 78.1845C77.3246 78.4235 76.8913 78.3929 76.6438 78.1161L75.5419 76.8842C75.2943 76.6075 75.3262 76.1893 75.6131 75.9503C75.9 75.7113 76.3332 75.7419 76.5808 76.0187L77.6826 77.2506C77.9302 77.5274 77.8984 77.9455 77.6115 78.1845Z" fill="#B46D1F"/>
<path d="M91.8986 44.9933C92.0924 44.6794 91.9852 44.2733 91.6592 44.0862C91.3332 43.8992 90.9118 44.0019 90.718 44.3158L88.9732 47.1414C88.7794 47.4552 88.8866 47.8613 89.2126 48.0484C89.5386 48.2355 89.96 48.1327 90.1538 47.8189L91.8986 44.9933Z" fill="#B46D1F"/>
<path d="M19.0768 6.87114C19.4956 6.54932 20.106 6.6155 20.4401 7.01896L30.9687 19.7341C31.3028 20.1375 31.2341 20.7255 30.8153 21.0473C30.3964 21.3691 29.7861 21.303 29.452 20.8995L18.9233 8.1844C18.5892 7.78093 18.6579 7.19297 19.0768 6.87114Z" fill="#FF9E33"/>
<path d="M63.4339 -1.25375C63.953 -1.12608 64.2674 -0.616968 64.136 -0.116626L60.0023 15.6281C59.8709 16.1284 59.3436 16.4305 58.8245 16.3028C58.3054 16.1752 57.991 15.6661 58.1224 15.1657L62.2561 -0.57897C62.3875 -1.07931 62.9148 -1.38142 63.4339 -1.25375Z" fill="#FF9E33"/>
<path d="M1.65398 43.4205C1.11835 43.4089 0.675344 43.8177 0.664483 44.3337C0.653623 44.8497 1.07902 45.2774 1.61465 45.2891L18.4713 45.6559C19.0069 45.6675 19.4499 45.2587 19.4608 44.7427C19.4716 44.2267 19.0462 43.799 18.5106 43.7873L1.65398 43.4205Z" fill="#FF9E33"/>
<path d="M19.5654 81.7899C19.1541 81.4592 19.0986 80.8697 19.4415 80.4732L30.2229 68.0038C30.5657 67.6072 31.1772 67.5538 31.5885 67.8844C31.9999 68.2151 32.0554 68.8046 31.7125 69.2012L20.9311 81.6706C20.5882 82.0671 19.9768 82.1206 19.5654 81.7899Z" fill="#FF9E33"/>
<path d="M61.7645 92.3079C61.8904 92.8096 62.4147 93.1187 62.9357 92.9984C63.4567 92.8781 63.7771 92.3739 63.6512 91.8722L59.6875 76.0692C59.5617 75.5675 59.0373 75.2583 58.5163 75.3786C57.9953 75.499 57.675 76.0032 57.8008 76.5048L61.7645 92.3079Z" fill="#FF9E33"/>
<path d="M97.1627 66.6911C96.9325 67.1572 96.3541 67.3544 95.8707 67.1318L80.6452 60.1184C80.1618 59.8958 79.9566 59.3375 80.1869 58.8715C80.4171 58.4055 80.9956 58.2082 81.4789 58.4309L96.7045 65.4442C97.1878 65.6669 97.393 66.2251 97.1627 66.6911Z" fill="#FF9E33"/>
<path d="M95.8589 24.8988C96.3018 24.6087 96.4161 24.0277 96.1143 23.6011C95.8124 23.1746 95.2086 23.0641 94.7657 23.3543L80.54 32.6748C80.0971 32.9649 79.9828 33.5459 80.2847 33.9724C80.5866 34.399 81.1903 34.5095 81.6332 34.2193L95.8589 24.8988Z" fill="#FF9E33"/>
<path d="M54.3108 39.8895L53.7359 42.547L41.3213 40.0549L40.6701 43.0651L51.1113 46.7064L51.0869 48.6353C51.0543 51.2076 52.9248 53.476 55.5745 54.0079C58.6218 54.6196 61.6068 52.7358 62.2418 49.8004C62.8769 46.8649 60.9213 43.9894 57.8741 43.3777L56.4947 43.1008L57.0696 40.4433L58.449 40.7202C63.0199 41.6377 65.9531 45.951 65.0006 50.3542C64.0481 54.7574 59.5705 57.583 54.9996 56.6654C50.9755 55.8577 48.2207 52.418 48.269 48.6022L39.7109 45.6177C38.3922 45.1578 37.6253 43.8339 37.9114 42.5113L38.5625 39.5011C38.88 38.0334 40.3726 37.0915 41.8962 37.3974L54.3108 39.8895ZM62.5696 35.3775C63.203 34.9778 64.0721 35.1522 64.487 35.7624C64.9157 36.3753 64.7346 37.2125 64.0875 37.6094C63.0373 38.2721 63.2011 38.1802 62.1648 38.8456C61.5148 39.2559 60.6595 39.0842 60.2337 38.458L60.2256 38.4286C59.7969 37.8157 59.978 36.9786 60.6252 36.5816L62.5696 35.3775ZM49.4821 32.7365C50.1183 32.3235 50.9874 32.4979 51.3994 33.1214L52.6494 34.9944C53.0644 35.6046 52.8833 36.4417 52.2499 36.8414C51.5998 37.2517 50.7308 37.0772 50.3187 36.4538C49.6446 35.445 49.7429 35.5895 49.0521 34.5912C48.6233 33.9783 48.8015 33.1544 49.4516 32.7442L49.4821 32.7365ZM58.0173 29.5417C58.7622 29.6912 59.2427 30.3977 59.0874 31.1153L58.2136 35.1547C58.0584 35.8723 57.325 36.3351 56.5663 36.1828L56.5249 36.1745C55.78 36.025 55.2996 35.3185 55.4577 34.5876L56.3286 30.5615C56.4839 29.8439 57.2173 29.3811 57.9759 29.5334L58.0173 29.5417Z" fill="white"/>
</svg>
