<svg width="55" height="55" viewBox="0 0 55 55" fill="none" xmlns="http://www.w3.org/2000/svg">
<path d="M35.7404 45.7925H8.11772C7.21206 45.7925 6.3064 45.3397 5.62716 44.6604C4.94791 43.9812 4.7215 43.0755 4.7215 41.9435L4.94791 39.9057C5.17433 38.3208 6.3064 33.1133 8.79697 31.9812H9.02338L13.5517 30.8491C13.3253 30.1699 13.3253 29.7171 13.3253 29.2642C13.3253 29.0378 13.3253 28.8114 13.0989 28.585C13.0989 28.585 13.0989 28.585 13.0989 28.3586V28.1321C11.9668 27.2265 11.5139 26.0944 11.2875 24.5095C11.0611 22.9246 11.2875 21.5661 11.9668 20.434C11.9668 19.9812 11.9668 19.7548 11.9668 19.302C11.9668 17.7171 11.9668 16.8114 12.1932 16.1321C13.3253 11.8303 17.1743 9.11328 22.1555 9.11328C26.6838 9.11328 30.7592 12.0567 31.6649 16.1321C31.8913 16.8114 31.8913 17.7171 31.8913 19.302C31.8913 19.7548 31.8913 19.9812 31.8913 20.434C32.5706 21.5661 32.797 22.9246 32.5706 24.7359C32.3441 26.0944 31.8913 27.2265 30.9856 28.1321V28.3586C30.9856 28.3586 30.9856 28.3586 30.9856 28.585C30.7592 29.4906 30.5328 30.3963 30.08 31.302L34.8347 31.9812C35.0611 31.9812 35.0611 31.9812 35.2875 32.2076C37.7781 33.3397 38.9102 38.5472 39.1366 40.1322L39.363 42.1699C39.363 43.0755 39.1366 44.2076 38.4573 44.8869C37.5517 45.3397 36.646 45.7925 35.7404 45.7925ZM52.4951 39.9057C52.2687 38.3208 51.1366 33.1133 48.646 31.9812C48.4196 31.9812 48.4196 31.9812 48.1932 31.7548L43.4385 31.0755C43.8913 30.1699 44.1177 29.2642 44.3441 28.3586C44.3441 28.3586 44.3441 28.3586 44.3441 28.1321V27.9057C45.2498 27.0001 45.929 25.868 46.1555 24.2831C46.3819 22.6982 46.1555 21.1133 45.4762 19.9812C45.4762 19.5284 45.4762 19.302 45.4762 18.8491C45.4762 17.4906 45.4762 16.3586 45.2498 15.6793C44.1177 12.0567 40.2687 9.11328 35.7404 9.11328C34.1555 9.11328 32.797 9.3397 31.4385 10.0189C32.3441 10.6982 33.0234 11.3774 33.4762 12.2831C34.1555 12.0567 35.0611 12.0567 35.7404 12.0567C38.4573 12.0567 41.8536 13.6416 42.7592 17.0378C42.9856 17.4906 42.9856 18.3963 42.9856 19.5284C42.9856 19.9812 42.9856 20.434 42.9856 20.8869C42.9856 21.1133 42.9856 21.5661 43.2121 21.7925C43.8913 22.4718 43.6649 23.6038 43.6649 24.2831C43.6649 24.9623 43.2121 25.868 42.5328 26.3208C42.3064 26.5472 42.08 26.7737 41.8536 27.2265V27.9057C41.6272 28.8114 41.4007 29.7171 40.9479 30.3963C40.9479 30.6227 40.7215 30.8491 40.7215 31.0755C40.7215 31.302 40.7215 31.9812 40.7215 32.434C40.7215 33.1133 41.1743 33.5661 41.8536 33.5661L47.5139 34.4718C48.4196 35.151 49.5517 38.0944 49.7781 40.1322L50.0045 42.1699C50.0045 42.3963 50.0045 42.6227 49.7781 42.8491C49.7781 42.8491 49.5517 43.0755 49.3253 43.0755H42.7592C42.7592 43.9812 42.5328 44.8869 42.08 45.7925H49.3253C50.2309 45.7925 51.1366 45.3397 51.8158 44.6604C52.4951 43.9812 52.7215 42.8491 52.7215 41.9435L52.4951 39.9057Z" fill="white"/>
</svg>
