<svg width="84" height="142" viewBox="0 0 84 142" fill="none" xmlns="http://www.w3.org/2000/svg">
<path d="M42.3242 71.1455C47.3969 55.4364 50.0151 42.8364 50.0151 32.3636C50.0151 23.0364 47.8879 19.2727 44.4515 19.2727C42.6515 19.2727 41.6697 20.4182 41.3424 21.5636C40.6879 20.2545 39.5424 19.2727 38.2333 19.2727C33.3242 19.2727 31.8515 24.8364 31.5242 43.1636L9.76058 38.2545C9.76058 11.7455 21.706 0.454543 36.106 0.454543C39.8697 0.454543 41.506 1.10909 42.3242 1.76363C43.1424 1.10909 44.6151 0.454543 49.0333 0.454543C62.9424 0.454543 74.5606 12.8909 74.5606 32.3636C74.5606 51.6727 65.5606 75.4 44.1242 115H74.8879L72.106 133H10.4151V122.364C27.7606 88.4909 38.3969 64.9273 42.3242 47.0909V71.1455ZM35.1242 115H42.3242V101.582C40.0333 105.836 37.7424 110.418 35.1242 115Z" fill="white"/>
<path d="M2.23331 122.364L7.1424 114.182V133H2.23331V122.364ZM1.57876 38.2545C1.57876 27.9455 3.37876 19.9273 6.48786 14.0364V39.4L1.57876 38.2545Z" fill="#0232FF"/>
<path d="M78.1606 133V115H83.0697L80.2879 133H78.1606ZM77.8333 12.8909C80.9424 18.1273 82.7424 24.6727 82.7424 32.3636C82.7424 40.3818 81.2697 49.2182 77.8333 59.5273V12.8909Z" fill="#CC05CC"/>
</svg>
