<svg width="12" height="12" viewBox="0 0 12 12" fill="none" xmlns="http://www.w3.org/2000/svg">
<path d="M0.347337 0.339036C-0.0431877 0.72956 -0.0431877 1.36273 0.347337 1.75325L4.59437 6.00028L0.347717 10.2469C-0.0428067 10.6375 -0.0428071 11.2706 0.347717 11.6611C0.738241 12.0517 1.37141 12.0517 1.76193 11.6611L6.00858 7.4145L10.2468 11.6527C10.6374 12.0433 11.2705 12.0433 11.661 11.6527C12.0516 11.2622 12.0516 10.6291 11.661 10.2385L7.4228 6.00028L11.6614 1.76166C12.0519 1.37113 12.0519 0.737966 11.6614 0.347442C11.2709 -0.0430822 10.6377 -0.0430822 10.2472 0.347442L6.00858 4.58607L1.76155 0.339036C1.37103 -0.0514885 0.737861 -0.0514885 0.347337 0.339036Z" fill="white" fill-opacity="0.55"/>
</svg>
