<svg width="17" height="16" viewBox="0 0 17 16" fill="none" xmlns="http://www.w3.org/2000/svg">
<path d="M5.30446 8.51962L6.04815 6.05192H6.80085L5.65827 9.33317H4.95289L3.81482 6.05192H4.56527L5.30446 8.51962Z" fill="white"/>
<path fill-rule="evenodd" clip-rule="evenodd" d="M8.79304 8.65709H7.60764L7.38228 9.33317H6.66338L7.88483 6.05192H8.51134L9.73955 9.33317H9.02065L8.79304 8.65709ZM7.79018 8.10946H8.6105L8.19809 6.88125L7.79018 8.10946Z" fill="white"/>
<path fill-rule="evenodd" clip-rule="evenodd" d="M10.7221 8.132H11.2607L11.876 9.33317H12.6016V9.30162L11.8917 7.96072C12.0886 7.87208 12.235 7.75339 12.3312 7.60465C12.4289 7.45441 12.4777 7.26736 12.4777 7.04351C12.4777 6.728 12.3725 6.48386 12.1622 6.31109C11.9518 6.13831 11.6529 6.05192 11.2652 6.05192H10.046V9.33317H10.7221V8.132ZM11.2675 7.58437H10.7221V6.59955H11.2652C11.447 6.59955 11.5815 6.64387 11.6686 6.73251C11.7573 6.82115 11.8016 6.94285 11.8016 7.09759C11.8016 7.24934 11.755 7.36878 11.6619 7.45592C11.5687 7.54155 11.4373 7.58437 11.2675 7.58437Z" fill="white"/>
<path fill-rule="evenodd" clip-rule="evenodd" d="M2.35248 2.6665C1.92765 2.6665 1.58325 3.0109 1.58325 3.43573V12.1537C1.58325 12.5785 1.92765 12.9229 2.35248 12.9229H14.1474C14.5722 12.9229 14.9166 12.5785 14.9166 12.1537V3.43573C14.9166 3.0109 14.5722 2.6665 14.1474 2.6665H2.35248ZM2.60889 11.8973V3.69214H13.8909V11.8973H2.60889Z" fill="white"/>
</svg>
