<svg width="32" height="32" viewBox="0 0 32 32" fill="none" xmlns="http://www.w3.org/2000/svg">
<path d="M9.36 18.6667C6.41333 18.6667 4.02667 21.0533 4.02667 24C4.02667 26.9467 6.41333 29.3333 9.36 29.3333C12.3067 29.3333 14.6933 26.9467 14.6933 24C14.6933 21.0533 12.3067 18.6667 9.36 18.6667ZM17.3333 18.6667V29.3333H28V18.6667H17.3333ZM9.33333 4L2.66667 16H16L9.33333 4ZM25.6667 4.66667C24.2533 4.66667 23.2533 5.41333 22.6667 6.22667C22.08 5.41333 21.08 4.66667 19.6667 4.66667C17.5867 4.66667 16 6.37333 16 8.33333C16 11 19.2267 12.8933 22.6667 16C26.1067 12.8933 29.3333 11 29.3333 8.33333C29.3333 6.37333 27.7467 4.66667 25.6667 4.66667Z" fill="white"/>
</svg>
