<svg width="476" height="274" viewBox="0 0 476 274" fill="none" xmlns="http://www.w3.org/2000/svg">
<path d="M267.314 175.216C283.718 165.836 283.718 150.627 267.314 141.247C250.91 131.866 224.315 131.866 207.911 141.247C191.507 150.627 191.507 165.836 207.911 175.216C224.315 184.597 250.91 184.597 267.314 175.216Z" stroke="white" stroke-width="1.67303" stroke-miterlimit="10" stroke-linecap="square"/>
<path d="M85.3904 198.57L129.168 173.535C129.596 173.291 130.289 173.291 130.717 173.535L210.847 219.358C211.275 219.603 211.275 219.999 210.847 220.244L167.069 245.278" stroke="white" stroke-width="1.67303" stroke-miterlimit="10"/>
<path d="M308.152 71.184L264.374 96.2183C263.947 96.4629 263.947 96.8594 264.374 97.1039L344.505 142.926C344.932 143.171 345.626 143.171 346.053 142.926L389.831 117.892" stroke="white" stroke-width="1.67303" stroke-miterlimit="10"/>
<path d="M150.052 108.822L326.717 209.185" stroke="white" stroke-width="1.67303" stroke-miterlimit="10"/>
<path d="M260.397 45.7206L39.7107 171.92C39.1365 172.248 39.138 172.781 39.7141 173.108L214.297 272.289C214.871 272.615 215.797 272.614 216.368 272.287L437.055 146.088C437.629 145.759 437.627 145.227 437.051 144.899L262.468 45.7187C261.895 45.3929 260.969 45.3937 260.397 45.7206Z" stroke="white" stroke-width="1.67303" stroke-miterlimit="10" stroke-linecap="square"/>
</svg>
