<svg width="32" height="32" viewBox="0 0 32 32" fill="none" xmlns="http://www.w3.org/2000/svg">
<rect width="32" height="32" rx="16" fill="#3B2359"/>
<path d="M10.3471 10.339C9.95657 10.7295 9.95657 11.3627 10.3471 11.7532L14.5941 16.0002L10.3475 20.2469C9.95695 20.6374 9.95695 21.2706 10.3475 21.6611C10.738 22.0516 11.3712 22.0516 11.7617 21.6611L16.0083 17.4144L20.2466 21.6527C20.6371 22.0432 21.2703 22.0432 21.6608 21.6527C22.0513 21.2622 22.0513 20.629 21.6608 20.2385L17.4226 16.0002L21.6612 11.7616C22.0517 11.3711 22.0517 10.7379 21.6612 10.3474C21.2707 9.95686 20.6375 9.95686 20.247 10.3474L16.0083 14.586L11.7613 10.339C11.3708 9.94845 10.7376 9.94845 10.3471 10.339Z" fill="white" fill-opacity="0.55"/>
</svg>
