<svg width="20" height="20" viewBox="0 0 20 20" fill="none" xmlns="http://www.w3.org/2000/svg">
<g clip-path="url(#clip0_2121_61621)">
<rect width="20" height="20" rx="10" fill="white" fill-opacity="0.25"/>
<g filter="url(#filter0_d_2121_61621)">
<rect x="-0.5" width="20" height="20" rx="10" fill="#0A9504"/>
<path fill-rule="evenodd" clip-rule="evenodd" d="M12.0129 7.44981C12.6798 8.30455 13.4357 9.27322 13.5604 10.8188C13.5604 10.8188 13.5837 11.1205 13.5837 11.2283C13.5837 13.3676 11.7582 15.1089 9.51228 15.1151H9.50943C9.50674 15.1157 9.50342 15.1152 9.50033 15.1151C7.24886 15.1151 5.41699 13.3714 5.41699 11.2283C5.41699 11.1547 5.4172 11.0811 5.42186 11.0077C5.48832 8.8018 6.63057 8.24932 6.67908 8.22697C6.74444 8.19618 6.82021 8.19851 6.88468 8.23056C6.94848 8.26303 6.99233 8.32249 7.00275 8.39082C7.00496 8.40517 7.21453 9.72245 8.13966 9.91057C8.14343 9.34334 8.17024 8.48445 8.37292 7.72047C8.66493 6.62311 9.50079 5.47302 10.5026 4.79065C10.5714 4.74299 10.6625 4.73688 10.7383 4.77421C10.8138 4.81132 10.8614 4.88533 10.8614 4.96632C10.8614 5.97437 11.3948 6.65776 12.0123 7.44907L12.0129 7.44981ZM8.24423 12.9505C8.24423 13.7343 8.87826 14.372 9.65765 14.372C10.4371 14.372 11.0711 13.7343 11.0711 12.9505C11.0711 12.9093 11.0682 12.8709 11.0652 12.8327C11.0157 12.1879 10.7339 11.8096 10.4613 11.4439C10.2708 11.1882 10.0757 10.9264 9.97563 10.6028C9.75063 10.8521 9.57301 11.1631 9.49869 11.4554C9.41522 11.7851 9.40828 12.1505 9.40828 12.4671C9.40828 12.59 9.30293 12.6895 9.17273 12.6895C8.77588 12.6895 8.53158 12.4347 8.39491 12.1576C8.32199 12.3077 8.25549 12.5333 8.24606 12.8639C8.24419 12.894 8.24421 12.919 8.24423 12.9434C8.24423 12.9458 8.24423 12.9482 8.24423 12.9505Z" fill="white"/>
</g>
</g>
<defs>
<filter id="filter0_d_2121_61621" x="-2.5" y="-1" width="24" height="24" filterUnits="userSpaceOnUse" color-interpolation-filters="sRGB">
<feFlood flood-opacity="0" result="BackgroundImageFix"/>
<feColorMatrix in="SourceAlpha" type="matrix" values="0 0 0 0 0 0 0 0 0 0 0 0 0 0 0 0 0 0 127 0" result="hardAlpha"/>
<feOffset dy="1"/>
<feGaussianBlur stdDeviation="1"/>
<feColorMatrix type="matrix" values="0 0 0 0 0 0 0 0 0 0 0 0 0 0 0 0 0 0 0.15 0"/>
<feBlend mode="normal" in2="BackgroundImageFix" result="effect1_dropShadow_2121_61621"/>
<feBlend mode="normal" in="SourceGraphic" in2="effect1_dropShadow_2121_61621" result="shape"/>
</filter>
<clipPath id="clip0_2121_61621">
<rect width="20" height="20" rx="10" fill="white"/>
</clipPath>
</defs>
</svg>
