<svg width="11" height="9" viewBox="0 0 11 9" fill="none" xmlns="http://www.w3.org/2000/svg">
<path d="M9.82479 8.36669C9.82479 8.09357 9.60339 7.87217 9.33027 7.87217H1.6652C1.39209 7.87217 1.17068 8.09357 1.17068 8.36669C1.17068 8.6398 1.39209 8.86121 1.6652 8.86121H9.33027C9.60339 8.86121 9.82479 8.6398 9.82479 8.36669Z" fill="#FFCD44"/>
<path d="M5.49994 0.45459C5.45612 0.45459 5.4123 0.478766 5.39321 0.527257L3.96295 4.14783C3.94468 4.19398 3.90099 4.22049 3.85594 4.22049C3.83258 4.22049 3.80896 4.21335 3.78822 4.19824L0.182893 1.5505C0.161464 1.53484 0.138112 1.52783 0.115446 1.52783C0.0474499 1.52783 -0.0143651 1.59034 0.0029431 1.66795L1.15298 6.84309C1.16465 6.89557 1.21122 6.93293 1.26507 6.93293H9.73497C9.78882 6.93293 9.83539 6.89557 9.84706 6.84309L10.9971 1.66795C11.0143 1.59034 10.9526 1.52783 10.8846 1.52783C10.8619 1.52783 10.8384 1.53484 10.8171 1.5505L7.21182 4.1981C7.19108 4.21335 7.16745 4.22035 7.1441 4.22035C7.09905 4.22035 7.05536 4.19384 7.03709 4.14769L5.60681 0.527119C5.58772 0.478766 5.54376 0.45459 5.49994 0.45459Z" fill="#FFCD44"/>
</svg>
