<svg width="210" height="210" viewBox="0 0 210 210" fill="none" xmlns="http://www.w3.org/2000/svg">
<path d="M139.088 101.796H135.976C135.905 101.796 135.905 101.832 135.905 101.903V102.225C135.905 102.297 135.905 102.333 135.976 102.333H137.228V106.16C137.228 106.231 137.264 106.267 137.336 106.267H137.693C137.765 106.267 137.801 106.231 137.801 106.16V102.333H139.088C139.16 102.333 139.16 102.297 139.16 102.225V101.903C139.16 101.832 139.16 101.796 139.088 101.796ZM143.595 101.796H143.416C143.237 101.796 143.166 101.832 143.058 102.046C142.987 102.225 142.272 104.014 142.164 104.228C142.129 104.3 141.807 105.087 141.807 105.158H141.771C141.735 105.087 141.413 104.264 141.413 104.193L140.555 102.011C140.483 101.796 140.376 101.76 140.197 101.76H140.018C139.768 101.76 139.696 101.868 139.696 102.082V106.088C139.696 106.16 139.732 106.196 139.804 106.196H140.125C140.197 106.196 140.233 106.16 140.233 106.088V102.833H140.269L140.59 103.656C140.662 103.835 141.234 105.23 141.342 105.409C141.413 105.587 141.485 105.659 141.664 105.659H141.878C142.057 105.659 142.129 105.587 142.2 105.409C142.272 105.23 142.844 103.835 142.915 103.656C142.951 103.62 143.237 102.833 143.273 102.798H143.309V106.088C143.309 106.16 143.345 106.196 143.416 106.196H143.738C143.81 106.196 143.845 106.16 143.845 106.088V102.082C143.917 101.903 143.845 101.796 143.595 101.796Z" fill="#5EC4E7"/>
<path d="M129.967 32.6195C130.074 33.2991 130.146 33.9787 130.146 34.694C130.146 35.8744 130.003 36.9832 129.717 38.0563C137.8 44.9954 142.915 55.2967 142.915 66.8142C142.915 87.7388 125.961 104.729 105.001 104.729C84.0761 104.729 67.086 87.7746 67.086 66.8142C67.086 48.8942 79.5335 33.8714 96.2374 29.9368C97.9543 28.0053 99.8143 26.2169 101.817 24.5715C79.9269 26.2169 62.6507 44.4946 62.6507 66.8142C62.6507 90.2069 81.608 109.164 105.001 109.164C128.393 109.164 147.351 90.2069 147.351 66.8142C147.351 52.7572 140.519 40.3097 129.967 32.6195Z" fill="#F2365A"/>
<path d="M98.5624 87.5244C97.5251 83.5183 97.2389 79.1545 97.9543 74.7908C100.243 60.8768 110.974 50.647 124.745 47.9286L121.705 44.7094C110.974 48.1789 102.497 55.3684 98.6339 65.0975L97.8827 63.2018C100.637 55.2611 104.643 49.9674 106.431 47.857C104.428 45.7825 103.212 42.9925 103.212 39.9164C103.212 35.8388 105.358 32.2619 108.578 30.2231C107.862 31.5466 107.469 33.0488 107.469 34.6584C107.469 39.8806 111.689 44.1013 116.912 44.1013C122.134 44.1013 126.355 39.8806 126.355 34.6584C126.355 29.5435 122.277 25.3586 117.162 25.2155L119.022 19.5999L118.915 19.6356C100.959 25.0009 88.0106 41.8837 88.0106 61.2345C88.0106 73.2527 92.2313 84.1264 97.4535 90.1713C97.8828 89.2413 98.312 88.2398 98.5624 87.5244ZM104.679 62.8441C103.534 64.2033 102.354 66.4567 101.925 67.7444C102.568 70.2482 102.89 72.8593 102.89 75.5419C102.89 88.4901 91.6232 100.294 89.9064 101.617C93.4474 103.155 97.3105 104.157 101.317 104.55C104.786 101.546 111.904 92.0312 111.904 82.5526C111.904 79.4407 111.403 76.4361 110.509 73.6462L111.153 73.0381C113.299 77.1873 114.479 81.873 114.479 86.8806C114.479 89.4559 114.372 96.2877 108.721 104.55C114.515 103.978 119.952 102.082 124.673 99.2207C125.639 83.6614 116.554 69.7474 104.679 62.8441Z" fill="#5EC4E7"/>
<path d="M84.9722 147.279C84.9722 155.636 81.3801 160.584 73.4627 160.584C65.8752 160.584 62.2464 155.783 62.2464 147.389C62.2464 139.142 66.5716 134.12 73.5727 134.12C81.1968 134.12 84.9722 139.178 84.9722 147.279ZM79.1441 147.389C79.1075 142.954 78.0812 139.105 73.6093 139.105C69.8705 139.105 68.0745 142.77 68.0745 147.169C68.0745 152.301 69.394 155.563 73.646 155.563C77.8612 155.563 79.1441 151.677 79.1441 147.389ZM75.5153 166.156H72.3997C71.8499 166.156 71.7766 165.936 71.7766 165.46V162.637C71.7766 162.124 71.8499 161.941 72.3997 161.941H76.5417C80.8669 161.941 84.2391 163.04 85.9619 164.287C86.3651 164.58 86.4384 164.763 86.2185 165.203L84.8623 167.695C84.6057 168.172 84.3491 168.245 83.726 167.915C81.8199 166.926 79.1441 166.156 75.5153 166.156Z" fill="white"/>
<path d="M109.698 135.293V156.626C109.698 158.349 109.074 159.631 107.022 160.145C105.079 160.584 102.037 160.621 100.754 160.621C92.3234 160.621 88.9145 158.092 88.9145 149.515L88.8778 135.293C88.8778 134.706 89.1711 134.523 89.7209 134.523H93.6429C94.376 134.523 94.5226 134.67 94.5226 135.293V149.845C94.5226 153.877 95.6956 155.746 100.351 155.746C101.01 155.746 102.88 155.709 104.163 155.453V135.293C104.163 134.706 104.419 134.523 105.006 134.523H108.891C109.624 134.523 109.698 134.67 109.698 135.293Z" fill="white"/>
<path d="M120.433 159.412C120.433 160.035 120.286 160.181 119.553 160.181H115.668C115.081 160.181 114.825 159.998 114.825 159.412V135.293C114.825 134.706 115.081 134.523 115.668 134.523H119.553C120.286 134.523 120.433 134.67 120.433 135.293V159.412Z" fill="white"/>
<path d="M145.362 136.576V137.785C145.362 138.885 144.702 139.875 144.079 140.644L132.13 155.16L132.203 155.416H144.812C145.362 155.416 145.472 155.563 145.472 156.223V159.412C145.472 159.998 145.325 160.181 144.812 160.181H126.888C125.495 160.181 124.762 159.631 124.762 158.202V157.322C124.762 156.149 125.202 155.38 125.935 154.5L138.324 139.471L138.287 139.252H127.145C126.631 139.252 126.448 139.032 126.448 138.482V135.293C126.448 134.633 126.558 134.486 127.145 134.486H143.163C144.739 134.486 145.362 134.963 145.362 136.576Z" fill="white"/>
<path d="M69.4238 193.183L68.2444 189.252H61.3195L60.1401 193.092C60.0192 193.485 59.868 193.667 59.2934 193.667H55.7553C55.332 193.667 55.2412 193.364 55.332 193.062L61.6219 174.101C62.0452 172.71 62.5896 172.468 63.8294 172.438H65.6438C67.0046 172.438 67.5187 172.62 68.0025 174.101L74.2924 193.062C74.3832 193.304 74.3227 193.667 73.8993 193.667H70.3008C69.8472 193.667 69.5448 193.606 69.4238 193.183ZM63.5572 181.661L62.4081 185.502H67.1558L66.0067 181.661L64.8878 177.337H64.7064L63.5572 181.661Z" fill="white"/>
<path d="M89.8777 183.597L89.9079 183.748C91.2687 184.353 91.6921 185.502 92.0549 186.923L93.5972 192.971C93.6577 193.213 93.6274 193.667 93.1436 193.667H89.9684C89.5148 193.667 88.9402 193.667 88.7588 193.062L87.4282 187.709C86.9141 185.744 85.9465 185.079 84.1321 185.079H81.1988V193.032C81.1988 193.576 81.1081 193.667 80.5033 193.667H77.2676C76.7837 193.667 76.5721 193.516 76.5721 193.032V174.313C76.5721 173.104 76.9349 172.468 78.3865 172.468H85.7953C90.1498 172.468 92.69 174.888 92.69 178.607C92.69 180.664 91.6921 182.629 89.8777 183.597ZM87.9725 178.91C87.9725 177.881 87.4585 176.521 85.3417 176.521H81.229V181.359H85.2509C87.0049 181.359 87.9725 180.361 87.9725 178.91Z" fill="white"/>
<path d="M111.531 192.971C111.531 193.455 111.41 193.667 110.926 193.667H101.975C97.4998 193.667 96.381 190.854 96.381 188.103V178.063C96.381 175.19 97.8627 172.468 101.945 172.468H110.624C111.108 172.468 111.199 172.62 111.199 173.194V175.765C111.199 176.279 111.078 176.43 110.624 176.43H102.943C101.371 176.43 100.977 177.246 100.977 178.305V180.633H109.656C110.14 180.633 110.231 180.784 110.231 181.359V183.718C110.231 184.202 110.14 184.413 109.656 184.413H100.977V187.861C100.977 189.252 101.673 189.675 102.943 189.675H110.926C111.44 189.675 111.531 189.796 111.531 190.401V192.971Z" fill="white"/>
<path d="M119.644 180.512H119.493V193.032C119.493 193.546 119.372 193.667 118.797 193.667H115.622C115.138 193.667 114.927 193.516 114.927 193.032V174.585C114.927 173.013 115.41 172.468 116.892 172.468H118.162C119.372 172.468 119.735 172.68 120.43 173.829L125.571 181.661L128.172 185.744H128.323V173.104C128.323 172.62 128.444 172.468 129.018 172.468H132.194C132.708 172.468 132.889 172.65 132.889 173.104V191.58C132.889 192.85 132.496 193.667 130.924 193.667H129.653C128.444 193.667 128.081 193.455 127.385 192.336L122.547 185.018L119.644 180.512Z" fill="white"/>
<path d="M149.257 193.183L148.077 189.252H141.152L139.973 193.092C139.852 193.485 139.701 193.667 139.126 193.667H135.588C135.165 193.667 135.074 193.364 135.165 193.062L141.455 174.101C141.878 172.71 142.422 172.468 143.662 172.438H145.477C146.837 172.438 147.351 172.62 147.835 174.101L154.125 193.062C154.216 193.304 154.155 193.667 153.732 193.667H150.134C149.68 193.667 149.378 193.606 149.257 193.183ZM143.39 181.661L142.241 185.502H146.989L145.839 181.661L144.721 177.337H144.539L143.39 181.661Z" fill="white"/>
</svg>
