<svg width="120" height="120" viewBox="0 0 120 120" fill="none" xmlns="http://www.w3.org/2000/svg">
<path d="M16.847 85.4843L13.8358 73.2389C13.7895 73.0079 13.8821 72.7768 14.1138 72.6844L16.986 71.483C18.9317 74.81 22.2672 78.1833 24.4909 81.0944C24.5372 81.1869 24.5835 81.2793 24.5835 81.4179C24.3519 84.6988 24.1202 88.0258 24.0739 91.3991C25.9733 90.1514 27.78 89.1348 29.7721 88.0258C29.9574 87.9334 30.189 87.9796 30.328 88.1182C33.4318 91.6301 36.6747 94.7723 40.0102 98.0532C38.4351 93.8019 36.9526 90.059 35.3312 85.854C35.2386 85.6229 35.3312 85.3919 35.5629 85.2533C38.0645 83.9594 40.4271 82.8042 42.9751 81.5103C45.9863 83.8208 51.2212 87.6099 52.472 88.4879C52.6573 88.6265 52.7036 88.8114 52.6573 88.9962L49.1365 100.364L59.7915 93.5247C59.9305 93.4323 60.1622 93.4323 60.3011 93.5247L70.9099 100.364L67.3891 88.9962C67.3427 88.8114 67.3891 88.5803 67.5744 88.4879C68.8252 87.6099 74.0601 83.8208 77.0713 81.5103C79.6192 82.8042 81.9819 83.9594 84.4835 85.2533C84.7151 85.3457 84.8078 85.6229 84.7151 85.854C83.0474 90.059 81.6113 93.8019 80.0362 98.0532C83.3717 94.7261 86.6145 91.5839 89.7184 88.1182C89.8574 87.9334 90.089 87.9334 90.2743 88.0258C92.3127 89.1348 94.0731 90.1514 95.9724 91.3991C95.9261 88.0258 95.6945 84.6988 95.4628 81.4179C95.4628 81.3255 95.5092 81.1869 95.5555 81.0944C97.7792 78.1833 101.115 74.81 103.06 71.483L105.933 72.6844C106.164 72.7768 106.257 73.0079 106.211 73.2389L103.199 85.4843C103.199 85.4843 108.481 75.3645 111.167 67.6476C115.707 54.478 115.059 51.2434 115.059 51.0123C114.966 51.2896 114.132 53.5538 112.835 56.4188C112.835 54.8939 112.557 51.6131 110.612 47.0846C110.612 47.0384 110.612 46.9921 110.612 46.9459C111.353 43.5265 112.326 36.8262 112.326 36.8262C112.326 36.8262 109.453 40.6615 107.693 42.6485C107.6 42.7409 107.461 42.7409 107.369 42.6485C106.072 41.3084 104.033 39.6911 102.504 38.4435C100.79 37.1034 98.2887 35.6709 96.4357 34.6543C96.343 34.6081 96.2967 34.5619 96.2967 34.4695C96.1577 31.3735 95.9724 28.2775 95.8335 25.1815C94.3973 27.5381 92.9612 29.8948 91.4788 32.2052C91.4324 32.2977 91.2935 32.3439 91.2008 32.2977C88.8382 31.4197 85.827 30.4031 83.2327 29.7562C80.6384 29.1092 77.5809 28.4623 75.0792 28.0002C74.9866 28.0002 74.9403 27.9078 74.8939 27.8154C74.199 25.4125 73.2725 22.0854 72.5776 19.6364C71.4195 22.1779 70.215 24.5807 69.0105 27.076C68.9642 27.1685 68.8715 27.2147 68.7789 27.2147C65.9066 26.9836 62.8491 26.9374 59.9768 26.9836C57.1046 26.9836 54.0471 26.9836 51.1285 27.2147C51.0359 27.2147 50.9432 27.1685 50.8969 27.076C49.6461 24.5807 48.4879 22.2241 47.3298 19.6364C46.6349 22.1317 45.7083 25.4125 45.0134 27.8154C44.9671 27.9078 44.9208 27.954 44.8281 28.0002C42.3265 28.4623 39.269 29.1092 36.6747 29.7562C34.1267 30.4031 31.0692 31.4197 28.7066 32.2977C28.6139 32.3439 28.4749 32.2977 28.4286 32.2052C26.9462 29.8486 25.51 27.5381 24.0739 25.1815C23.9349 28.2775 23.7496 31.3735 23.6107 34.4695C23.6107 34.5619 23.5643 34.6081 23.4717 34.6543C21.6186 35.6247 19.0707 37.0572 17.4029 38.4435C15.8741 39.6911 13.8358 41.2622 12.5387 42.6485C12.446 42.7409 12.307 42.7409 12.2144 42.6485C10.454 40.6615 7.58173 36.8262 7.58173 36.8262C7.58173 36.8262 8.55459 43.5727 9.29581 46.9459C9.29581 46.9921 9.29581 47.0384 9.29581 47.0846C7.48908 51.382 7.11847 54.6166 7.07215 56.1878C5.86766 53.4152 5.03378 51.2434 4.94113 50.9661C4.94113 51.1972 4.29256 54.4318 8.83254 67.6014C11.5658 75.3645 16.847 85.4843 16.847 85.4843ZM8.55459 55.6795C9.52744 54.8015 10.3613 54.3856 10.3613 54.3856L13.5115 64.7826C13.5115 64.7826 13.9284 57.7127 14.2064 54.2932C14.2064 54.1545 14.3454 54.0159 14.5307 54.0621C16.3374 54.3394 19.9045 55.4946 19.9045 55.4946C19.9045 55.4946 15.8741 47.9625 15.5499 47.2232C15.5499 47.177 15.5035 47.1308 15.5499 47.0846C16.0131 44.312 16.986 41.6781 17.6346 38.9056C19.2096 39.5063 20.6921 40.1994 22.2209 40.8463C22.6841 41.0312 23.1011 41.2622 23.5643 41.4471C23.657 41.4933 23.7033 41.5857 23.7033 41.6781C23.6107 44.9589 23.5643 49.3026 23.5643 52.491C25.0004 49.4874 26.4829 46.4838 27.919 43.5265C27.9653 43.434 28.1043 43.3878 28.197 43.434C30.5133 44.312 32.8759 45.19 35.2386 46.0218C34.0341 43.6651 32.6443 40.2456 31.3472 37.7965C31.3008 37.7041 31.3008 37.6117 31.3472 37.5655C31.7641 36.9186 32.181 36.3641 32.5516 35.8095C33.9414 33.915 35.3312 32.2514 36.8137 30.3107C38.6667 31.0038 40.7051 31.9742 42.4655 32.8522C42.9287 33.0832 43.2994 33.2681 43.67 33.4529C43.7626 33.4991 43.8089 33.5915 43.8089 33.7301C43.1604 36.5951 42.3728 40.8463 41.6779 43.6189C44.1796 41.216 46.4959 38.7207 48.9048 36.3178C48.9975 36.2254 49.0902 36.2254 49.1828 36.2716C52.055 37.7503 54.8346 39.3676 57.6142 40.9388C56.2244 38.0276 54.8346 35.1626 53.3059 32.3439C53.2595 32.2514 53.2595 32.1128 53.3985 32.0204C55.5295 30.5417 57.7069 29.1092 59.8842 27.6768C62.0615 29.1092 64.2389 30.5417 66.3699 32.0204C66.4625 32.0666 66.5089 32.2052 66.4625 32.3439C64.9338 35.1626 63.544 38.0738 62.1542 40.9388C64.9801 39.3676 67.7597 37.7965 70.5856 36.2716C70.6782 36.2254 70.7709 36.2254 70.8635 36.3178C73.2725 38.7669 75.6352 41.2622 78.0905 43.6189C77.3956 40.8463 76.6543 36.5951 75.9594 33.7301C75.9131 33.6377 76.0058 33.4991 76.0984 33.4529C76.4227 33.2681 81.0553 31.0038 82.9084 30.3107C85.6416 33.4991 87.958 36.9186 88.3749 37.5655C88.4212 37.6579 88.4212 37.7041 88.3749 37.7965C87.0778 40.3843 85.688 43.6651 84.4835 46.0218C86.8461 45.19 89.1625 44.3582 91.5251 43.434C91.6178 43.3878 91.7567 43.434 91.8031 43.5265C93.2855 46.5301 94.7216 49.4874 96.1577 52.491C96.1577 49.3488 96.1114 44.9589 96.0188 41.6781C96.0188 41.5857 96.0651 41.4933 96.1577 41.4471C96.621 41.2622 100.512 39.5063 102.088 38.9056C102.736 41.6781 103.709 44.312 104.172 47.0846C104.172 47.1308 104.172 47.177 104.172 47.2232C103.848 47.9625 99.8175 55.4946 99.8175 55.4946C99.8175 55.4946 103.431 54.3394 105.191 54.0621C105.33 54.0159 105.469 54.1545 105.516 54.2932C105.794 57.7127 106.211 64.7826 106.211 64.7826L109.361 54.3856C109.361 54.3856 110.195 54.8015 111.167 55.6795C111.816 56.2802 112.187 56.6961 112.372 57.0195C110.982 60.1155 109.129 63.766 107.183 66.4C106.164 67.74 105.145 68.8953 103.987 69.9581C103.06 70.7898 102.041 71.483 100.976 72.0837C98.8447 73.2851 96.343 74.3941 95.2312 74.9024C94.9532 75.0411 94.629 74.8562 94.5826 74.579L93.0539 65.9379L88.2359 77.5364C88.1896 77.675 88.0506 77.7674 87.958 77.8136C86.7072 78.1833 80.1288 80.0778 76.7933 80.6786C76.3764 80.771 67.945 81.7876 64.9338 82.0186C64.7485 82.0186 64.5632 81.9262 64.4705 81.7414C62.9417 77.906 59.9305 70.5126 59.9305 70.5126C59.9305 70.5126 56.9193 77.906 55.3905 81.7414C55.2979 81.9262 55.1126 82.0648 54.9273 82.0186C51.9624 81.7876 43.4847 80.771 43.0677 80.6786C39.7322 80.0778 33.1539 78.1833 31.9031 77.8136C31.7641 77.7674 31.6714 77.675 31.6251 77.5364L26.8072 65.9379L25.2784 74.579C25.2321 74.8562 24.9078 75.0411 24.6298 74.9024C23.24 74.3017 19.3023 72.4996 17.4492 71.2519C15.6888 70.0505 14.0674 68.3407 12.6313 66.4462C10.6393 63.766 8.78622 60.0693 7.39643 56.9733C7.62806 56.6498 7.99867 56.234 8.55459 55.6795ZM112.187 82.2035C112.187 81.5565 111.816 81.2793 111.028 81.2793H109.778V84.5139H110.241V83.1277H110.797L111.631 84.5139H112.187L111.26 83.0814C111.816 83.0352 112.187 82.8042 112.187 82.2035ZM110.287 82.7118V81.6952H110.936C111.26 81.6952 111.631 81.7876 111.631 82.1573C111.631 82.6656 111.26 82.6656 110.843 82.6656H110.287V82.7118ZM110.89 80.1241C109.361 80.1241 108.064 81.3255 108.064 82.8966C108.064 84.5139 109.361 85.7153 110.89 85.7153C112.418 85.7153 113.715 84.5139 113.715 82.8966C113.715 81.3255 112.418 80.1241 110.89 80.1241ZM110.89 85.2533C109.592 85.2533 108.62 84.2829 108.62 82.8966C108.62 81.5565 109.639 80.5862 110.89 80.5862C112.14 80.5862 113.16 81.6028 113.16 82.8966C113.16 84.2829 112.14 85.2533 110.89 85.2533Z" fill="white"/>
</svg>
