<svg width="293" height="189" viewBox="0 0 293 189" fill="none" xmlns="http://www.w3.org/2000/svg">
<path d="M186.343 104.074H182.705C182.622 104.074 182.622 104.115 182.622 104.199V104.575C182.622 104.659 182.622 104.701 182.705 104.701H184.169V109.174C184.169 109.258 184.21 109.299 184.294 109.299H184.712C184.796 109.299 184.837 109.258 184.837 109.174V104.701H186.343C186.426 104.701 186.426 104.659 186.426 104.575V104.199C186.426 104.115 186.426 104.074 186.343 104.074ZM191.61 104.074H191.401C191.192 104.074 191.109 104.115 190.983 104.366C190.9 104.575 190.063 106.666 189.938 106.916C189.896 107 189.52 107.92 189.52 108.003H189.478C189.436 107.92 189.06 106.958 189.06 106.875L188.057 104.324C187.973 104.074 187.848 104.032 187.639 104.032H187.43C187.137 104.032 187.053 104.157 187.053 104.408V109.09C187.053 109.174 187.095 109.216 187.179 109.216H187.555C187.639 109.216 187.68 109.174 187.68 109.09V105.286H187.722L188.098 106.248C188.182 106.457 188.851 108.087 188.976 108.296C189.06 108.505 189.144 108.589 189.353 108.589H189.604C189.813 108.589 189.896 108.505 189.98 108.296C190.063 108.087 190.732 106.457 190.816 106.248C190.858 106.206 191.192 105.286 191.234 105.244H191.276V109.09C191.276 109.174 191.318 109.216 191.401 109.216H191.778C191.861 109.216 191.903 109.174 191.903 109.09V104.408C191.987 104.199 191.903 104.074 191.61 104.074Z" fill="#5EC4E7"/>
<path d="M175.682 23.218C175.807 24.0123 175.891 24.8066 175.891 25.6428C175.891 27.0224 175.723 28.3185 175.389 29.5727C184.837 37.6833 190.816 49.7239 190.816 63.1859C190.816 87.6432 170.999 107.502 146.5 107.502C122.043 107.502 102.184 87.685 102.184 63.1859C102.184 42.2403 116.733 24.6812 136.257 20.0824C138.264 17.8248 140.438 15.7344 142.779 13.8113C117.193 15.7344 97 37.098 97 63.1859C97 90.5279 119.158 112.686 146.5 112.686C173.842 112.686 196 90.5279 196 63.1859C196 46.7555 188.015 32.2065 175.682 23.218Z" fill="#F2365A"/>
<path d="M138.975 87.3923C137.762 82.7099 137.428 77.6094 138.264 72.5089C140.94 56.2458 153.482 44.2888 169.578 41.1115L166.024 37.3488C153.482 41.4041 143.573 49.8074 139.058 61.1791L138.18 58.9633C141.4 49.682 146.082 43.4945 148.172 41.0279C145.831 38.603 144.41 35.3421 144.41 31.7466C144.41 26.9806 146.918 22.7998 150.681 20.4168C149.845 21.9637 149.385 23.7196 149.385 25.6009C149.385 31.7048 154.318 36.6381 160.422 36.6381C166.526 36.6381 171.459 31.7048 171.459 25.6009C171.459 19.6225 166.693 14.731 160.715 14.5638L162.889 8L162.763 8.04181C141.776 14.3129 126.641 34.046 126.641 56.6638C126.641 70.7111 131.575 83.4206 137.679 90.4861C138.18 89.3991 138.682 88.2285 138.975 87.3923ZM146.124 58.5452C144.786 60.1339 143.406 62.7677 142.905 64.2728C143.657 67.1993 144.033 70.2513 144.033 73.3868C144.033 88.5211 130.864 102.318 128.857 103.864C132.996 105.662 137.511 106.833 142.194 107.293C146.249 103.781 154.569 92.66 154.569 81.5811C154.569 77.9438 153.984 74.432 152.938 71.171L153.691 70.4603C156.199 75.31 157.579 80.7867 157.579 86.6398C157.579 89.6499 157.454 97.6351 150.848 107.293C157.621 106.624 163.976 104.408 169.494 101.063C170.623 82.8771 160.004 66.614 146.124 58.5452Z" fill="#5EC4E7"/>
<path d="M34.1969 158.104C34.1969 169.048 29.4929 175.528 19.1249 175.528C9.18888 175.528 4.43688 169.24 4.43688 158.248C4.43688 147.448 10.1009 140.872 19.2689 140.872C29.2529 140.872 34.1969 147.496 34.1969 158.104ZM26.5649 158.248C26.5169 152.44 25.1729 147.4 19.3169 147.4C14.4209 147.4 12.0689 152.2 12.0689 157.96C12.0689 164.68 13.7969 168.952 19.3649 168.952C24.8849 168.952 26.5649 163.864 26.5649 158.248ZM21.8129 182.824H17.7329C17.0129 182.824 16.9169 182.536 16.9169 181.912V178.216C16.9169 177.544 17.0129 177.304 17.7329 177.304H23.1569C28.8209 177.304 33.2369 178.744 35.4929 180.376C36.0209 180.76 36.1169 181 35.8289 181.576L34.0529 184.84C33.7169 185.464 33.3809 185.56 32.5649 185.128C30.0689 183.832 26.5649 182.824 21.8129 182.824ZM67.6754 142.408V170.344C67.6754 172.6 66.8594 174.28 64.1714 174.952C61.6274 175.528 57.6434 175.576 55.9634 175.576C44.9234 175.576 40.4594 172.264 40.4594 161.032L40.4114 142.408C40.4114 141.64 40.7954 141.4 41.5154 141.4H46.6514C47.6114 141.4 47.8034 141.592 47.8034 142.408V161.464C47.8034 166.744 49.3394 169.192 55.4354 169.192C56.2994 169.192 58.7474 169.144 60.4274 168.808V142.408C60.4274 141.64 60.7634 141.4 61.5314 141.4H66.6194C67.5794 141.4 67.6754 141.592 67.6754 142.408ZM82.8336 173.992C82.8336 174.808 82.6416 175 81.6816 175H76.5936C75.8256 175 75.4896 174.76 75.4896 173.992V142.408C75.4896 141.64 75.8256 141.4 76.5936 141.4H81.6816C82.6416 141.4 82.8336 141.592 82.8336 142.408V173.992ZM115.479 144.088V145.672C115.479 147.112 114.615 148.408 113.799 149.416L98.1505 168.424L98.2465 168.76H114.759C115.479 168.76 115.623 168.952 115.623 169.816V173.992C115.623 174.76 115.431 175 114.759 175H91.2865C89.4625 175 88.5025 174.28 88.5025 172.408V171.256C88.5025 169.72 89.0785 168.712 90.0385 167.56L106.263 147.88L106.215 147.592H91.6225C90.9505 147.592 90.7105 147.304 90.7105 146.584V142.408C90.7105 141.544 90.8545 141.352 91.6225 141.352H112.599C114.663 141.352 115.479 141.976 115.479 144.088ZM154.071 174.232L152.199 167.992H141.207L139.335 174.088C139.143 174.712 138.903 175 137.991 175H132.375C131.703 175 131.559 174.52 131.703 174.04L141.687 143.944C142.359 141.736 143.223 141.352 145.191 141.304H148.071C150.231 141.304 151.047 141.592 151.815 143.944L161.799 174.04C161.943 174.424 161.847 175 161.175 175H155.463C154.743 175 154.263 174.904 154.071 174.232ZM144.759 155.944L142.935 162.04H150.471L148.647 155.944L146.871 149.08H146.583L144.759 155.944ZM187.204 159.016L187.252 159.256C189.412 160.216 190.084 162.04 190.66 164.296L193.108 173.896C193.204 174.28 193.156 175 192.388 175H187.348C186.628 175 185.716 175 185.428 174.04L183.316 165.544C182.5 162.424 180.964 161.368 178.084 161.368H173.428V173.992C173.428 174.856 173.284 175 172.324 175H167.188C166.42 175 166.084 174.76 166.084 173.992V144.28C166.084 142.36 166.66 141.352 168.964 141.352H180.724C187.636 141.352 191.668 145.192 191.668 151.096C191.668 154.36 190.084 157.48 187.204 159.016ZM184.18 151.576C184.18 149.944 183.364 147.784 180.004 147.784H173.476V155.464H179.86C182.644 155.464 184.18 153.88 184.18 151.576ZM222.242 173.896C222.242 174.664 222.05 175 221.282 175H207.074C199.97 175 198.194 170.536 198.194 166.168V150.232C198.194 145.672 200.546 141.352 207.026 141.352H220.802C221.57 141.352 221.714 141.592 221.714 142.504V146.584C221.714 147.4 221.522 147.64 220.802 147.64H208.61C206.114 147.64 205.49 148.936 205.49 150.616V154.312H219.266C220.034 154.312 220.178 154.552 220.178 155.464V159.208C220.178 159.976 220.034 160.312 219.266 160.312H205.49V165.784C205.49 167.992 206.594 168.664 208.61 168.664H221.282C222.098 168.664 222.242 168.856 222.242 169.816V173.896ZM235.119 154.12H234.879V173.992C234.879 174.808 234.687 175 233.775 175H228.735C227.967 175 227.631 174.76 227.631 173.992V144.712C227.631 142.216 228.399 141.352 230.751 141.352H232.767C234.687 141.352 235.263 141.688 236.367 143.512L244.527 155.944L248.655 162.424H248.895V142.36C248.895 141.592 249.087 141.352 249.999 141.352H255.039C255.855 141.352 256.143 141.64 256.143 142.36V171.688C256.143 173.704 255.519 175 253.023 175H251.007C249.087 175 248.511 174.664 247.407 172.888L239.727 161.272L235.119 154.12ZM282.79 174.232L280.918 167.992H269.926L268.054 174.088C267.862 174.712 267.622 175 266.71 175H261.094C260.422 175 260.278 174.52 260.422 174.04L270.406 143.944C271.078 141.736 271.942 141.352 273.91 141.304H276.79C278.95 141.304 279.766 141.592 280.534 143.944L290.518 174.04C290.662 174.424 290.566 175 289.894 175H284.182C283.462 175 282.982 174.904 282.79 174.232ZM273.478 155.944L271.654 162.04H279.19L277.366 155.944L275.59 149.08H275.302L273.478 155.944Z" fill="white"/>
</svg>
