<svg width="261" height="260" viewBox="0 0 261 260" fill="none" xmlns="http://www.w3.org/2000/svg">
<g clip-path="url(#clip0_5898_7483)">
<path d="M65.1862 122.433C57.392 121.436 55.3967 113.018 60.0108 95.8083C64.2509 79.8458 70.4862 71.241 77.844 71.241C85.8252 71.241 87.9453 80.8435 83.3934 97.8036C81.5228 104.912 78.5922 111.334 74.9757 115.637V115.761H78.0934L76.5345 123.867L65.1862 122.433ZM66.8074 115.2C68.7403 115.2 70.3615 111.023 74.4769 95.8083C78.2804 81.5917 78.5922 78.4117 76.6593 78.4117C74.6016 78.4117 73.0427 82.5894 68.9274 97.8036C65.1238 112.02 64.7497 115.2 66.8074 115.2ZM90.9024 122.371C83.42 122.371 80.4894 117.196 82.7341 108.778L92.6483 71.8645H101.69L91.4636 110.025C90.3412 114.203 90.9648 115.2 92.1495 115.2C93.9578 115.2 94.7683 113.205 95.8907 109.027L105.805 71.8645H114.347L104.184 109.776C101.939 118.193 97.9484 122.371 90.9024 122.371ZM104.012 121.747L117.418 71.8645H126.459L113.053 121.747H104.012ZM114.96 121.747L115.957 117.694L135.973 78.7234H126.807L128.615 71.8645H148.88L147.882 75.9175L127.929 114.889H138.342L135.412 121.747H114.96Z" fill="white"/>
<path d="M66.1747 177.021L84.2573 127.138H97.8503L89.3703 177.021H80.8902L83.1349 164.862H79.5184L75.2783 177.021H66.1747ZM81.3266 158.003H84.8184L88.622 137.613H88.3102L81.3266 158.003ZM91.0431 177.021L104.449 127.138H112.804H113.303C121.783 127.387 125.275 133.186 122.781 142.664C121.534 147.341 119.04 152.703 114.987 155.821L114.363 177.021H105.26L106.32 158.377H105.01L100.084 177.021H91.0431ZM106.819 151.518H107.193C109.936 151.518 111.869 148.712 113.366 142.165C114.862 135.805 114.737 133.997 111.994 133.997H111.495L106.819 151.518ZM115.424 177.021L128.83 127.138H146.539L143.671 133.997H136.001L131.823 149.585H138.869L136.001 156.444H130.015L126.336 170.162H135.19L132.26 177.021H115.424ZM135.117 177.021L148.523 127.138H155.694L155.943 151.768H156.317L162.927 127.138H170.284L156.878 177.021H149.708L149.396 152.703H149.146L142.662 177.021H135.117ZM158.542 177.021L176.625 127.138H190.218L181.738 177.021H173.258L175.502 164.862H171.886L167.646 177.021H158.542ZM173.694 158.003H177.186L180.989 137.613H180.678L173.694 158.003Z" fill="white"/>
<path d="M192.237 113.449C179.95 113.907 167.273 114.151 154.986 114.257C154.904 104.288 154.881 94.0708 154.97 84.1026C154.998 80.4216 155.055 76.7178 155.103 73.0369C165.025 73.1923 175.197 73.4187 185.115 73.8234C188.046 73.9422 192.077 74.1183 194.976 74.2806C194.875 76.3657 194.747 78.4485 194.612 80.5291C194.489 78.6787 194.379 76.8276 194.283 74.9757C182.328 75.593 170.167 75.9268 158.185 76.1188C158.306 85.0491 158.359 94.1806 158.327 103.097C158.327 105.72 158.301 108.356 158.281 110.967C168.695 111.074 179.489 111.294 189.864 111.652C190.833 111.678 192.626 111.753 193.885 111.806C194.075 107.128 194.308 102.313 194.612 97.6717C194.958 102.814 195.186 108.157 195.399 113.317C194.933 113.347 192.758 113.42 192.237 113.449ZM80.4805 187.66C68.5917 186.956 56.5406 186.636 44.6153 186.517C44.6824 177.569 44.6321 168.622 44.4644 159.676C44.4111 156.933 44.344 154.184 44.2632 151.429C51.0832 151.201 58.0953 150.89 64.881 150.421C65.9259 150.339 66.973 150.27 68.0178 150.179C63.9688 149.838 59.5403 149.594 55.4752 149.383C50.9803 149.157 46.1654 148.976 41.6797 148.835L41.6385 150.17C41.256 162.83 41.1317 175.492 41.2659 188.157L41.2842 189.837C46.4443 189.819 52.0023 189.702 57.1808 189.595C65.2194 189.389 73.4135 189.103 81.4156 188.6C81.2578 186.43 81.1275 183.57 80.9126 181.412C80.7617 183.232 80.6062 185.706 80.4805 187.66ZM207.025 162.42L206.981 161.562L206.209 161.604C202.075 161.816 197.566 162.061 193.446 162.42C197.29 162.738 201.449 162.994 205.36 163.19C205.068 169.261 204.857 175.335 204.729 181.412C204.604 186.986 204.526 193.022 204.501 198.699C192.779 198.699 180.89 198.882 169.189 199.35C169.02 195.498 168.789 191.362 168.54 187.594C168.447 186.169 168.339 184.745 168.217 183.323C167.739 188.929 167.458 194.771 167.197 200.407L167.154 201.383C173.836 201.665 180.521 201.863 187.209 201.977C193.254 202.076 200.175 202.14 206.204 202.114H207.919V200.416C207.894 187.777 207.64 175.024 207.025 162.42ZM180.229 100.146C174.756 95.0402 169.136 89.9463 163.354 85.2114C168.398 91.3707 173.846 97.3448 179.285 103.157L180.229 104.165C188.035 96.8624 195.644 89.3603 203.056 81.6585C210.12 74.2875 217.062 66.809 223.541 58.8961C219.57 62.1335 215.733 65.5058 211.952 68.933C200.973 78.9195 190.426 89.3656 180.229 100.146Z" fill="#FF50A6"/>
</g>
<defs>
<clipPath id="clip0_5898_7483">
<rect width="186.791" height="149.067" fill="white" transform="translate(36.65 55.4667)"/>
</clipPath>
</defs>
</svg>
