<svg width="169" height="88" viewBox="0 0 169 88" fill="none" xmlns="http://www.w3.org/2000/svg">
<g clip-path="url(#clip0_1698_44302)">
<path d="M117.757 30.572C214.973 -4.64703 311.23 -42.3157 407.26 -80.6332C407.073 -81.0712 406.984 -81.2983 406.797 -81.7363C307.431 -44.6274 208.121 -7.42917 107.934 27.4249C155.848 95.9325 203.648 164.513 249.54 234.383H252.349C209.079 165.413 163.576 97.8954 117.757 30.5801V30.572Z" fill="#FF40FF"/>
<path d="M137.395 36.9942C229.592 1.25864 320.702 -37.1522 410.885 -77.6952C410.715 -78.1249 410.633 -78.3438 410.463 -78.7734C317.072 -39.3006 223.047 -1.37613 128.024 34.0027C172.149 100.05 215.707 166.43 256.779 234.383H259.499C220.895 167.322 179.531 101.931 137.403 36.9861L137.395 36.9942Z" fill="#FF40FF"/>
<path d="M155.676 42.6093C242.841 6.74188 328.798 -32.0868 413.191 -74.1038C413.037 -74.5176 412.956 -74.7285 412.802 -75.1504C325.354 -34.0582 236.641 4.27553 146.794 39.786C187.63 103.7 227.46 168.182 264.405 234.384H266.974C232.346 169.05 194.615 105.501 155.676 42.6012V42.6093Z" fill="#FF40FF"/>
<path d="M173.629 48.2645C256.135 11.7773 337.287 -27.9709 416.153 -71.8236C416.007 -72.2292 415.934 -72.432 415.796 -72.8457C334.037 -29.7717 250.267 9.47353 165.233 45.62C202.49 107.441 238.272 170.024 270.837 234.383H273.3C242.892 170.875 209.103 109.152 173.637 48.2564L173.629 48.2645Z" fill="#FF40FF"/>
<path d="M97.7455 24.2318C199.91 -10.4258 301.262 -47.3295 402.98 -83.244C402.777 -83.6981 402.679 -83.9251 402.476 -84.3711C297.317 -49.7865 192.783 -13.3531 87.5186 20.9234C139.254 91.9251 191.282 162.716 242.092 234.383H244.989C196.947 163.616 147.298 93.9605 97.7455 24.2318Z" fill="#FF40FF"/>
<path d="M82.7378 48.0039C35.1965 110.411 -12.8641 172.421 -60.9897 234.383H-57.6136C-10.3889 176.011 36.4626 117.34 82.7378 58.2228C129.013 117.34 175.848 176.028 223.097 234.383H226.482C178.34 172.438 130.287 110.411 82.7459 48.0039H82.7378Z" fill="#FF40FF"/>
<path d="M83.2232 68.75C38.8477 124.451 -6.15278 179.681 -51.77 234.384H-48.1181C-3.5883 183.049 40.1624 131.025 83.2314 78.4731C126.3 131.025 170.051 183.057 214.597 234.384H218.249C172.615 179.681 127.615 124.451 83.2314 68.75H83.2232Z" fill="#FF40FF"/>
<path d="M82.8996 26.6016C32.3133 95.876 -18.6709 164.85 -68.8916 234.384H-65.7807C-16.2666 168.654 33.5561 103.151 82.9077 37.2997C132.259 103.151 182.066 168.671 231.604 234.384H234.715C184.47 164.867 133.494 95.876 82.9077 26.6016H82.8996Z" fill="#FF40FF"/>
<path d="M58.214 27.3616C-41.8624 -7.47448 -141.039 -44.7027 -240.32 -81.7363C-240.507 -81.2984 -240.596 -81.0714 -240.783 -80.6335C-144.834 -42.3998 -48.7066 -4.69312 48.3936 30.516C2.59254 97.8528 -42.8923 165.384 -86.1309 234.383H-83.3251C-37.4672 164.484 10.3126 95.8904 58.2059 27.3616H58.214Z" fill="#FF40FF"/>
<path d="M38.1196 33.7285C-56.7904 -1.67742 -150.67 -39.6877 -243.983 -79.1016C-244.153 -78.6716 -244.234 -78.4525 -244.404 -78.0225C-154.296 -37.5458 -63.3275 0.959358 28.76 36.7223C-13.342 101.749 -54.6816 167.231 -93.2636 234.384H-90.5547C-49.5071 166.339 -5.96951 99.8672 38.1277 33.7366L38.1196 33.7285Z" fill="#FF40FF"/>
<path d="M19.3496 39.7336C-70.5976 4.22623 -159.425 -34.0874 -246.979 -75.1504C-247.133 -74.7286 -247.214 -74.5259 -247.368 -74.1042C-162.873 -32.1246 -76.8126 6.6918 10.4571 42.5479C-28.553 105.46 -66.3542 169.038 -101.04 234.384H-98.4678C-61.4617 168.162 -21.551 103.66 19.3577 39.7336H19.3496Z" fill="#FF40FF"/>
<path d="M0.917755 45.5582C-84.2278 9.42313 -168.107 -29.8015 -249.974 -72.8457C-250.121 -72.4402 -250.194 -72.2375 -250.332 -71.8239C-171.362 -28.0013 -90.1033 11.7262 -7.49779 48.2018C-43.0346 109.111 -76.8916 170.855 -107.356 234.383H-104.889C-72.2659 170.003 -36.4126 107.4 0.909668 45.5663L0.917755 45.5582Z" fill="#FF40FF"/>
<path d="M78.2911 20.6502C-26.9654 -13.6601 -131.491 -50.1373 -236.659 -84.6992C-236.862 -84.2448 -236.959 -84.0176 -237.162 -83.5712C-135.428 -47.6865 -34.0837 -10.7306 68.0723 23.9531C18.4878 93.7749 -31.1941 163.507 -79.2527 234.384H-76.3632C-25.5368 162.615 26.5314 91.7461 78.2993 20.6502H78.2911Z" fill="#FF40FF"/>
<path d="M77.6039 -248.357C75.5899 -163.572 74.4612 -78.7613 73.5191 6.0489C-29.5342 -26.22 -132.125 -60.1019 -235.795 -90.3768C-235.812 -89.8661 -235.828 -89.6068 -235.844 -89.0961C-130.2 -55.7491 -25.4982 -19.5165 79.8534 14.7464C79.8371 -72.9495 79.8777 -160.653 80.2757 -248.349H77.6039V-248.357Z" fill="#FF40FF"/>
<path d="M87.1197 14.7464C192.31 -19.4517 296.858 -55.6114 402.325 -88.9745C402.309 -89.4852 402.293 -89.7446 402.276 -90.2552C298.784 -59.9803 196.356 -26.1632 93.4656 6.04893C92.523 -78.7532 91.3692 -163.572 89.2079 -248.357H86.5347C87.0872 -160.662 87.1441 -72.9576 87.1278 14.7383L87.1197 14.7464Z" fill="#FF40FF"/>
</g>
<defs>
<clipPath id="clip0_1698_44302">
<rect width="169" height="88" fill="white"/>
</clipPath>
</defs>
</svg>
