<svg width="84" height="142" viewBox="0 0 84 142" fill="none" xmlns="http://www.w3.org/2000/svg">
<path d="M41.8333 115.491C42.4879 115.655 43.1424 115.818 43.7969 115.818C48.706 115.818 50.506 110.255 50.506 94.5455C50.506 79.3273 48.0515 73.6 41.8333 73.2727V79.3273C40.3606 75.0727 37.906 73.2727 34.1424 73.2727H30.3788V55.2727H34.1424C38.7242 55.2727 41.0151 52.3273 41.8333 44.8V55.2727C47.2333 54.9455 49.1969 50.0364 49.1969 37.2727C49.1969 24.0182 47.7242 19.2727 43.306 19.2727C42.8151 19.2727 42.3242 19.2727 41.8333 19.4364V28.6C41.1788 21.8909 39.5424 19.2727 36.2697 19.2727C31.6879 19.2727 30.3788 25 30.3788 43.8182L8.61513 38.9091C8.61513 13.0545 19.2515 0.454543 34.7969 0.454543C37.5788 0.454543 40.3606 1.27272 41.8333 2.74545V0.454543H46.0879C62.2879 0.454543 74.0697 13.3818 74.0697 36.7818C74.0697 49.2182 69.1606 58.8727 59.9969 62.4727V63.4545C69.9788 67.7091 75.3788 79.6545 75.3788 95.0364C75.3788 120.564 63.9242 134.636 43.7969 134.636H41.8333V132.018C40.1969 133.491 35.7788 134.636 32.6697 134.636C18.7606 134.636 8.28786 122.2 8.28786 96.1818L30.0515 91.2727C30.0515 110.091 31.5242 115.818 36.7606 115.818C39.0515 115.818 40.6879 114.509 41.8333 111.4V115.491Z" fill="white"/>
<path d="M5.01513 120.4C1.90604 114.345 0.106037 106.327 0.106037 96.1818L5.01513 95.0364V120.4ZM0.106037 38.9091C0.106037 29.0909 2.06967 21.0727 5.01513 15.0182V39.8909L0.106037 38.9091Z" fill="#0232FF"/>
<path d="M78.6515 73.4364C81.7606 79.1636 83.8879 86.5273 83.8879 95.0364C83.8879 104.691 81.7606 112.709 78.6515 118.927V73.4364ZM78.6515 17.3091C80.9424 22.7091 82.4151 29.2545 82.4151 36.7818C82.4151 42.8364 80.9424 48.2364 78.6515 52.6545V17.3091Z" fill="#CC05CC"/>
</svg>
