<svg width="17" height="16" viewBox="0 0 17 16" fill="none" xmlns="http://www.w3.org/2000/svg">
<path d="M11.8847 6.70635C11.8633 6.66698 11.8322 6.63424 11.7946 6.61145C11.757 6.58867 11.7143 6.57666 11.6708 6.57666H8.44992L8.98991 2.28412C8.9957 2.22667 8.98274 2.16887 8.95312 2.12001C8.9235 2.07115 8.87894 2.03409 8.82661 2.01479C8.77428 1.99549 8.71722 1.99507 8.66464 2.0136C8.61205 2.03213 8.56699 2.06854 8.53671 2.11695L4.61976 9.2565C4.59686 9.29526 4.5843 9.33968 4.5834 9.38517C4.58249 9.43066 4.59326 9.47557 4.6146 9.51529C4.63594 9.55501 4.66707 9.58808 4.70479 9.61111C4.74251 9.63413 4.78545 9.64627 4.82918 9.64628H8.00194L7.57401 13.9453C7.5698 14.0025 7.58412 14.0596 7.61469 14.1074C7.64525 14.1552 7.6903 14.191 7.74268 14.2091C7.79506 14.2272 7.85175 14.2266 7.90373 14.2073C7.95571 14.188 7.99999 14.1512 8.02954 14.1027L11.8818 6.96388C11.9041 6.92506 11.9161 6.88077 11.9167 6.83553C11.9172 6.79029 11.9062 6.74571 11.8847 6.70635Z" fill="white"/>
</svg>
