<svg width="24" height="24" viewBox="0 0 24 24" fill="none" xmlns="http://www.w3.org/2000/svg">
<path d="M15.0175 5.9797C15.3347 6.24615 15.8078 6.20506 16.0742 5.88792C16.3407 5.57079 16.2996 5.09769 15.9824 4.83124L12.4824 1.89062C12.2038 1.65651 11.7973 1.65622 11.5183 1.88994L8.00834 4.83056C7.69082 5.09657 7.64907 5.5696 7.91508 5.88712C8.18108 6.20463 8.65412 6.24638 8.97163 5.98037L11.25 4.0716V14.4805C11.25 14.8947 11.5858 15.2305 12 15.2305C12.4142 15.2305 12.75 14.8947 12.75 14.4805V4.07455L15.0175 5.9797Z" fill="white"/>
<path d="M5 10.5352C5 9.8448 5.55964 9.28516 6.25 9.28516H8.78033V7.78516H6.25C4.73122 7.78516 3.5 9.01637 3.5 10.5352V19.5352C3.5 21.0539 4.73122 22.2852 6.25 22.2852H17.75C19.2688 22.2852 20.5 21.0539 20.5 19.5352V10.5352C20.5 9.01637 19.2688 7.78516 17.75 7.78516H15.2339V9.28516H17.75C18.4404 9.28516 19 9.8448 19 10.5352V19.5352C19 20.2255 18.4404 20.7852 17.75 20.7852H6.25C5.55964 20.7852 5 20.2255 5 19.5352V10.5352Z" fill="white"/>
</svg>
