<svg width="190" height="196" viewBox="0 0 190 196" fill="none" xmlns="http://www.w3.org/2000/svg">
<g filter="url(#filter0_d_4616_61427)">
<rect x="18.4244" y="8.05457" width="159.709" height="31.0546" rx="6.65455" fill="#0232FF"/>
<rect x="63.8972" y="19.1455" width="57.6727" height="8.87273" rx="4.43636" fill="white" fill-opacity="0.25"/>
</g>
<g filter="url(#filter1_d_4616_61427)">
<rect x="18.4244" y="52.4182" width="159.709" height="31.0546" rx="6.65455" fill="#0232FF"/>
<rect x="63.8972" y="63.5092" width="57.6727" height="8.87273" rx="4.43636" fill="white" fill-opacity="0.25"/>
</g>
<g filter="url(#filter2_d_4616_61427)">
<rect x="18.4244" y="96.7819" width="159.709" height="31.0546" rx="6.65455" fill="#32A72C"/>
<rect x="63.8971" y="107.873" width="57.6727" height="8.87273" rx="4.43636" fill="white" fill-opacity="0.25"/>
<rect x="151.533" y="113.584" width="3.09449" height="8.39932" transform="rotate(-50 151.533 113.584)" fill="white"/>
<rect x="155.597" y="116.995" width="14.1462" height="3.09449" transform="rotate(-50 155.597 116.995)" fill="white"/>
</g>
<g filter="url(#filter3_d_4616_61427)">
<rect x="18.4244" y="141.146" width="159.709" height="31.0546" rx="6.65455" fill="#0232FF"/>
<rect x="63.8972" y="152.236" width="57.6727" height="8.87273" rx="4.43636" fill="white" fill-opacity="0.25"/>
</g>
<g filter="url(#filter4_d_4616_61427)">
<rect x="13.988" y="4.72729" width="37.7091" height="37.7091" rx="8.87273" fill="#00009B"/>
<rect x="14.4161" y="5.15532" width="36.853" height="36.853" rx="8.4447" stroke="url(#paint0_linear_4616_61427)" stroke-width="0.856054"/>
<path d="M25.0241 30.8182L30.9045 15.8122L33.0029 15.2998L39.0297 30.8182L35.6869 30.8182L34.1741 26.7678L29.2697 26.7678L27.7569 30.8182L25.0241 30.8182ZM30.0993 24.4498L33.2957 24.4498L31.6853 20.1554L30.0993 24.4498Z" fill="white"/>
</g>
<g filter="url(#filter5_d_4616_61427)">
<rect x="13.988" y="49.0909" width="37.7091" height="37.7091" rx="8.87273" fill="#00009B"/>
<rect x="14.4161" y="49.519" width="36.853" height="36.853" rx="8.4447" stroke="url(#paint1_linear_4616_61427)" stroke-width="0.856054"/>
<path d="M28.0318 75.1819L28.0318 59.8831L32.5458 59.8831C36.6938 59.8831 38.109 61.2495 38.109 63.6895C38.109 65.2755 37.2306 66.4467 35.4738 66.7639L35.4738 66.8615C37.9138 66.9835 39.2802 68.6183 39.2802 70.6923C39.2802 73.3031 37.6942 75.1819 33.0826 75.1819L28.0318 75.1819ZM31.0818 65.9099L32.3506 65.9099C34.2782 65.9099 34.9858 65.2267 34.9858 64.0799C34.9858 62.9331 34.2782 62.2987 32.3506 62.2987L31.0818 62.2987L31.0818 65.9099ZM31.0818 72.7663L33.107 72.7663C35.1566 72.7663 35.9862 72.0099 35.9862 70.5703C35.9862 69.1307 35.1566 68.3743 32.985 68.3743L31.0818 68.3743L31.0818 72.7663Z" fill="white"/>
</g>
<g filter="url(#filter6_d_4616_61427)">
<rect x="13.988" y="93.4545" width="37.7091" height="37.7091" rx="8.87273" fill="#00009B"/>
<rect x="13.988" y="93.4545" width="37.7091" height="37.7091" rx="8.87273" stroke="url(#paint2_linear_4616_61427)" stroke-width="1.10909"/>
<path d="M33.7713 119.814C29.2817 119.814 26.6709 116.422 26.6709 111.884C26.6709 107.614 29.2817 103.93 33.8445 103.93C35.6013 103.93 37.3337 104.393 38.1633 104.954L37.9925 107.516C36.9677 106.858 35.6013 106.443 34.2593 106.443C33.2101 106.443 32.1853 106.76 31.4777 107.419C30.4041 108.395 29.9649 110.005 29.9649 111.689C29.9649 115.227 31.3801 117.325 34.2593 117.325C35.9185 117.325 37.1873 116.935 38.2853 116.3L38.5293 118.692C37.4313 119.35 35.6745 119.814 33.7713 119.814Z" fill="white"/>
</g>
<g filter="url(#filter7_d_4616_61427)">
<rect x="13.988" y="137.818" width="37.7091" height="37.7091" rx="8.87273" fill="#00009B"/>
<rect x="14.4161" y="138.246" width="36.853" height="36.853" rx="8.4447" stroke="url(#paint3_linear_4616_61427)" stroke-width="0.856054"/>
<path d="M27.1364 163.909L27.1364 148.61L31.3088 148.61C34.0416 148.61 35.4324 148.952 36.5792 149.635C38.7264 150.928 39.8732 153.197 39.8732 156.247C39.8732 159.297 38.702 161.615 36.5304 162.86C35.3104 163.567 33.7488 163.909 31.9188 163.909L27.1364 163.909ZM30.1864 161.493L31.7724 161.493C33.1876 161.493 34.3588 161.225 35.3592 160.273C36.2376 159.419 36.5792 158.126 36.5792 156.174C36.5792 154.808 36.14 153.319 35.3592 152.392C34.554 151.416 33.2364 151.026 31.6992 151.026L30.1864 151.026L30.1864 161.493Z" fill="white"/>
</g>
<defs>
<filter id="filter0_d_4616_61427" x="11.7699" y="3.6182" width="173.018" height="44.3637" filterUnits="userSpaceOnUse" color-interpolation-filters="sRGB">
<feFlood flood-opacity="0" result="BackgroundImageFix"/>
<feColorMatrix in="SourceAlpha" type="matrix" values="0 0 0 0 0 0 0 0 0 0 0 0 0 0 0 0 0 0 127 0" result="hardAlpha"/>
<feOffset dy="2.21818"/>
<feGaussianBlur stdDeviation="3.32727"/>
<feColorMatrix type="matrix" values="0 0 0 0 0 0 0 0 0 0 0 0 0 0 0 0 0 0 0.12 0"/>
<feBlend mode="normal" in2="BackgroundImageFix" result="effect1_dropShadow_4616_61427"/>
<feBlend mode="normal" in="SourceGraphic" in2="effect1_dropShadow_4616_61427" result="shape"/>
</filter>
<filter id="filter1_d_4616_61427" x="11.7699" y="47.9818" width="173.018" height="44.3637" filterUnits="userSpaceOnUse" color-interpolation-filters="sRGB">
<feFlood flood-opacity="0" result="BackgroundImageFix"/>
<feColorMatrix in="SourceAlpha" type="matrix" values="0 0 0 0 0 0 0 0 0 0 0 0 0 0 0 0 0 0 127 0" result="hardAlpha"/>
<feOffset dy="2.21818"/>
<feGaussianBlur stdDeviation="3.32727"/>
<feColorMatrix type="matrix" values="0 0 0 0 0 0 0 0 0 0 0 0 0 0 0 0 0 0 0.12 0"/>
<feBlend mode="normal" in2="BackgroundImageFix" result="effect1_dropShadow_4616_61427"/>
<feBlend mode="normal" in="SourceGraphic" in2="effect1_dropShadow_4616_61427" result="shape"/>
</filter>
<filter id="filter2_d_4616_61427" x="11.7699" y="92.3455" width="173.018" height="44.3637" filterUnits="userSpaceOnUse" color-interpolation-filters="sRGB">
<feFlood flood-opacity="0" result="BackgroundImageFix"/>
<feColorMatrix in="SourceAlpha" type="matrix" values="0 0 0 0 0 0 0 0 0 0 0 0 0 0 0 0 0 0 127 0" result="hardAlpha"/>
<feOffset dy="2.21818"/>
<feGaussianBlur stdDeviation="3.32727"/>
<feColorMatrix type="matrix" values="0 0 0 0 0 0 0 0 0 0 0 0 0 0 0 0 0 0 0.12 0"/>
<feBlend mode="normal" in2="BackgroundImageFix" result="effect1_dropShadow_4616_61427"/>
<feBlend mode="normal" in="SourceGraphic" in2="effect1_dropShadow_4616_61427" result="shape"/>
</filter>
<filter id="filter3_d_4616_61427" x="11.7699" y="136.709" width="173.018" height="44.3637" filterUnits="userSpaceOnUse" color-interpolation-filters="sRGB">
<feFlood flood-opacity="0" result="BackgroundImageFix"/>
<feColorMatrix in="SourceAlpha" type="matrix" values="0 0 0 0 0 0 0 0 0 0 0 0 0 0 0 0 0 0 127 0" result="hardAlpha"/>
<feOffset dy="2.21818"/>
<feGaussianBlur stdDeviation="3.32727"/>
<feColorMatrix type="matrix" values="0 0 0 0 0 0 0 0 0 0 0 0 0 0 0 0 0 0 0.12 0"/>
<feBlend mode="normal" in2="BackgroundImageFix" result="effect1_dropShadow_4616_61427"/>
<feBlend mode="normal" in="SourceGraphic" in2="effect1_dropShadow_4616_61427" result="shape"/>
</filter>
<filter id="filter4_d_4616_61427" x="7.33349" y="0.290931" width="51.0182" height="51.0182" filterUnits="userSpaceOnUse" color-interpolation-filters="sRGB">
<feFlood flood-opacity="0" result="BackgroundImageFix"/>
<feColorMatrix in="SourceAlpha" type="matrix" values="0 0 0 0 0 0 0 0 0 0 0 0 0 0 0 0 0 0 127 0" result="hardAlpha"/>
<feOffset dy="2.21818"/>
<feGaussianBlur stdDeviation="3.32727"/>
<feColorMatrix type="matrix" values="0 0 0 0 0.2 0 0 0 0 0.2 0 0 0 0 0.2 0 0 0 0.12 0"/>
<feBlend mode="normal" in2="BackgroundImageFix" result="effect1_dropShadow_4616_61427"/>
<feBlend mode="normal" in="SourceGraphic" in2="effect1_dropShadow_4616_61427" result="shape"/>
</filter>
<filter id="filter5_d_4616_61427" x="7.33349" y="44.6546" width="51.0182" height="51.0182" filterUnits="userSpaceOnUse" color-interpolation-filters="sRGB">
<feFlood flood-opacity="0" result="BackgroundImageFix"/>
<feColorMatrix in="SourceAlpha" type="matrix" values="0 0 0 0 0 0 0 0 0 0 0 0 0 0 0 0 0 0 127 0" result="hardAlpha"/>
<feOffset dy="2.21818"/>
<feGaussianBlur stdDeviation="3.32727"/>
<feColorMatrix type="matrix" values="0 0 0 0 0 0 0 0 0 0 0 0 0 0 0 0 0 0 0.12 0"/>
<feBlend mode="normal" in2="BackgroundImageFix" result="effect1_dropShadow_4616_61427"/>
<feBlend mode="normal" in="SourceGraphic" in2="effect1_dropShadow_4616_61427" result="shape"/>
</filter>
<filter id="filter6_d_4616_61427" x="6.77893" y="88.4635" width="52.1273" height="52.1273" filterUnits="userSpaceOnUse" color-interpolation-filters="sRGB">
<feFlood flood-opacity="0" result="BackgroundImageFix"/>
<feColorMatrix in="SourceAlpha" type="matrix" values="0 0 0 0 0 0 0 0 0 0 0 0 0 0 0 0 0 0 127 0" result="hardAlpha"/>
<feOffset dy="2.21818"/>
<feGaussianBlur stdDeviation="3.32727"/>
<feColorMatrix type="matrix" values="0 0 0 0 0 0 0 0 0 0 0 0 0 0 0 0 0 0 0.12 0"/>
<feBlend mode="normal" in2="BackgroundImageFix" result="effect1_dropShadow_4616_61427"/>
<feBlend mode="normal" in="SourceGraphic" in2="effect1_dropShadow_4616_61427" result="shape"/>
</filter>
<filter id="filter7_d_4616_61427" x="7.33349" y="133.382" width="51.0182" height="51.0182" filterUnits="userSpaceOnUse" color-interpolation-filters="sRGB">
<feFlood flood-opacity="0" result="BackgroundImageFix"/>
<feColorMatrix in="SourceAlpha" type="matrix" values="0 0 0 0 0 0 0 0 0 0 0 0 0 0 0 0 0 0 127 0" result="hardAlpha"/>
<feOffset dy="2.21818"/>
<feGaussianBlur stdDeviation="3.32727"/>
<feColorMatrix type="matrix" values="0 0 0 0 0 0 0 0 0 0 0 0 0 0 0 0 0 0 0.12 0"/>
<feBlend mode="normal" in2="BackgroundImageFix" result="effect1_dropShadow_4616_61427"/>
<feBlend mode="normal" in="SourceGraphic" in2="effect1_dropShadow_4616_61427" result="shape"/>
</filter>
<linearGradient id="paint0_linear_4616_61427" x1="13.9599" y1="0.773773" x2="21.3251" y2="19.0069" gradientUnits="userSpaceOnUse">
<stop stop-color="#C1D8FF"/>
<stop offset="1" stop-color="#BAD3FF" stop-opacity="0"/>
</linearGradient>
<linearGradient id="paint1_linear_4616_61427" x1="13.9599" y1="45.1374" x2="21.3251" y2="63.3705" gradientUnits="userSpaceOnUse">
<stop stop-color="#5B97FF"/>
<stop offset="1" stop-color="#5492FF" stop-opacity="0"/>
</linearGradient>
<linearGradient id="paint2_linear_4616_61427" x1="51.6971" y1="131.164" x2="13.988" y2="93.4545" gradientUnits="userSpaceOnUse">
<stop stop-color="#0232FF"/>
<stop offset="0.345" stop-color="#9A00FF"/>
<stop offset="0.69" stop-color="#FFD300"/>
<stop offset="1" stop-color="#0232FF"/>
</linearGradient>
<linearGradient id="paint3_linear_4616_61427" x1="13.9599" y1="133.865" x2="21.3251" y2="152.098" gradientUnits="userSpaceOnUse">
<stop stop-color="#5B97FF"/>
<stop offset="1" stop-color="#5492FF" stop-opacity="0"/>
</linearGradient>
</defs>
</svg>
