<svg width="120" height="120" viewBox="0 0 120 120" fill="none" xmlns="http://www.w3.org/2000/svg">
<path d="M105.074 68.7776C104.951 68.8391 104.766 68.7161 104.766 68.5932C104.459 62.5669 103.905 56.7252 103.598 54.5729C103.598 49.3461 102.737 43.9963 101.876 39.9993C101.815 39.8763 101.999 39.7533 102.122 39.7533C107.042 40.7372 108.64 42.582 108.64 42.582C106.058 36.7402 102.307 32.3128 98.2481 28.9922C94.7431 21.6746 90.7461 18.2925 90.7461 18.2925C91.0536 19.8913 90.8691 21.7361 90.2542 23.6424C90.1927 23.7654 90.0697 23.8268 89.9467 23.7654C83.244 20.5063 76.3569 19.0305 73.7128 18.6C69.7158 16.6323 65.3498 15.4024 61.8448 14.4185C61.7218 14.4185 61.7218 14.2956 61.7833 14.2341C66.4567 10.3601 70.8226 9.31469 70.8226 9.31469C63.1976 9.00723 56.6179 10.4215 51.0836 12.5123C42.8437 11.8359 37.6168 13.3117 37.6168 13.3117C37.6168 13.3117 39.892 16.0173 40.7529 17.5546C40.8759 17.7391 40.8144 17.9851 40.63 18.1081C35.4646 21.6746 31.7751 25.6716 30.2993 27.2704C28.639 27.5164 25.8718 27.8853 23.4122 28.5003C23.2892 28.5003 23.2277 28.4388 23.2892 28.3158C25.7488 22.4125 28.4545 19.1534 28.4545 19.1534C28.4545 19.1534 12.5895 30.4065 9.57641 50.6989C9.57641 50.6989 10.8677 47.1324 15.2952 41.6596C15.3567 41.5981 15.4797 41.5981 15.4797 41.6596C16.7095 44.4267 18.1853 46.8864 18.8617 48.0548C16.402 51.9903 14.7418 56.2332 13.6964 59.7383C13.6349 59.8613 13.5734 59.9843 13.4504 59.9843C9.76088 61.3986 8.8385 62.6899 8.8385 62.6899C9.39193 64.6577 10.5603 66.5639 11.9746 68.3472C12.0976 68.5317 12.1591 68.7161 12.1591 68.9006C11.7901 77.571 14.5573 83.2283 14.5573 83.2283C15.1722 80.2152 16.402 77.2636 18.0008 74.4964C18.0623 74.3734 18.1853 74.3734 18.3083 74.4349C21.9363 77.3251 25.6874 79.8462 27.1632 80.7071C27.9626 82.6749 30.1148 87.7787 33.0664 93.0056C33.1279 93.1285 33.0664 93.2515 32.9434 93.313C29.4384 94.6044 25.8103 95.1578 22.4898 94.3584C22.4898 94.3584 26.4868 99.3392 38.7852 101.491C42.2288 105.55 46.3487 108.871 51.2066 110.039C51.2066 110.039 49.7923 108.44 49.4233 102.598C49.4233 102.475 49.4848 102.352 49.6078 102.352C52.6209 102.414 56.8024 102.475 60.5534 102.168C61.9062 103.213 64.7964 105.55 67.6865 107.026C67.8095 107.087 67.8095 107.272 67.6865 107.395C62.7057 110.408 59.3236 110.715 59.3236 110.715C82.0142 111.207 95.6655 96.3876 95.6655 96.3876C91.9145 98.8473 87.61 100.385 83.3055 101.307C83.1825 101.307 83.0596 101.184 83.0596 101.061C83.859 97.187 83.613 93.436 83.5515 92.1447C88.9628 90.7918 93.6362 88.3936 97.1413 85.934C97.2028 85.8725 97.3258 85.8725 97.3872 85.934C98.8631 86.9178 100.093 88.0862 101.323 89.9309C101.323 89.9309 103.659 86.6104 104.459 78.8624C110.301 71.2373 111.161 63.4278 111.161 63.4278C109.87 65.949 107.656 67.6093 105.074 68.7776ZM56.1875 20.6293C56.372 20.3218 56.6794 20.1373 57.0484 20.0758C64.3659 19.0919 71.0686 18.969 73.6513 19.0305C78.3247 22.1666 82.9366 26.2865 86.5646 30.1605C86.8106 30.4065 86.8721 30.837 86.6876 31.1444C84.1049 35.2029 80.2924 39.1384 78.6321 40.8602C72.4829 42.336 65.9032 44.4267 60.6149 46.21C60.123 46.3945 59.5081 46.21 59.2006 45.7181C55.1421 39.8763 52.6209 34.8339 51.5756 32.9277C52.6824 28.0698 54.1582 23.7039 56.1875 20.6293ZM20.3375 57.832C19.7226 54.0195 19.3537 49.961 19.2922 48.1163C19.1692 43.8733 19.8456 40.0608 20.645 36.5557C20.768 36.0023 21.0754 35.4489 21.5059 35.0799C23.7811 32.9892 27.9011 29.2997 30.5452 27.6394C33.0049 26.0406 39.8306 23.8268 42.6592 23.0274C43.2126 22.843 43.7661 23.0889 44.0735 23.5809C44.381 24.1958 44.7499 24.7492 45.1189 25.3642C47.3326 28.8077 49.7923 31.8208 50.7762 33.0507C49.4233 38.462 48.8084 44.5497 48.5625 49.6536C48.5625 50.1455 48.255 50.576 47.763 50.7604C40.63 53.5276 35.2801 55.7413 33.4354 56.5407C28.5775 56.7252 23.9041 57.5861 20.768 58.1395C20.5835 58.201 20.3375 58.0165 20.3375 57.832ZM40.3225 89.808C39.8921 90.0539 39.4001 90.0539 38.9697 89.7465C35.3416 87.1638 31.0987 83.9047 27.4706 80.5841C25.3799 76.9561 23.7196 72.3442 22.6128 68.4087C22.5513 68.1627 22.6127 67.8553 22.7357 67.6708C26.7327 62.7514 31.5906 58.8159 33.5584 57.3401C38.1088 59.3078 43.3356 61.0296 47.886 62.5669C48.378 62.7514 48.6854 63.1204 48.7469 63.6123C49.3619 71.7293 50.8992 78.3089 51.2681 80.8301C49.6078 82.6749 45.1189 86.8563 40.3225 89.808ZM90.3771 81.7525C86.9336 87.5328 84.2894 91.0378 83.4285 92.0832C82.2602 93.682 79.37 97.9249 74.8811 102.168C74.5736 102.414 74.2047 102.598 73.8357 102.598C68.1785 102.844 62.8901 102.414 60.8609 101.983C59.1391 101.246 55.0806 99.4622 50.2842 96.8181C49.8538 96.5721 49.6078 96.1416 49.6693 95.6497C49.9153 91.9602 51.0836 86.6719 52.129 81.0761C54.7117 76.5257 57.3558 71.4218 60.123 67.1788C60.4304 66.7484 60.9839 66.5024 61.4758 66.6869C69.7158 68.9621 76.9104 70.6839 79.862 71.2988C83.859 75.9107 87.733 79.1698 90.3157 81.1991C90.4386 81.3835 90.4386 81.568 90.3771 81.7525ZM96.3419 70.7454C96.2189 70.9914 95.9729 71.1758 95.727 71.1758C89.4548 71.9137 82.8136 71.0528 80.2309 70.6224C75.9265 66.3179 71.3146 61.583 67.871 57.4016C67.502 56.9711 67.502 56.3562 67.8095 55.9258C72.6674 49.1001 77.1563 43.6888 79.0626 41.5366C84.4739 40.3682 89.8237 39.3229 93.4517 39.1384C93.6977 39.1384 94.0052 39.2614 94.1282 39.5074C98.8016 46.0255 102.184 52.2977 103.229 54.5729C101.077 60.3532 98.4941 66.195 96.3419 70.7454Z" fill="white"/>
</svg>
