<svg width="22" height="22" viewBox="0 0 22 22" fill="none" xmlns="http://www.w3.org/2000/svg">
<path d="M14.0156 5.31527C14.2975 5.55212 14.7181 5.51559 14.9549 5.2337C15.1918 4.9518 15.1552 4.53127 14.8733 4.29442L11.7622 1.68053C11.5145 1.47244 11.1532 1.47219 10.9052 1.67993L7.78524 4.29382C7.50301 4.53027 7.46589 4.95075 7.70234 5.23298C7.93879 5.51521 8.35927 5.55232 8.6415 5.31587L10.6667 3.61919V12.8715C10.6667 13.2397 10.9652 13.5382 11.3334 13.5382C11.7016 13.5382 12 13.2397 12 12.8715V3.62181L14.0156 5.31527Z" fill="white"/>
<path d="M5.11117 9.36457C5.11117 8.75092 5.60863 8.25346 6.22228 8.25346H8.47146V6.92012H6.22228C4.87225 6.92012 3.77783 8.01454 3.77783 9.36457V17.3646C3.77783 18.7146 4.87225 19.809 6.22228 19.809H16.4445C17.7945 19.809 18.8889 18.7146 18.8889 17.3646V9.36457C18.8889 8.01454 17.7945 6.92012 16.4445 6.92012H14.208V8.25346H16.4445C17.0581 8.25346 17.5556 8.75092 17.5556 9.36457V17.3646C17.5556 17.9782 17.0581 18.4757 16.4445 18.4757H6.22228C5.60863 18.4757 5.11117 17.9782 5.11117 17.3646V9.36457Z" fill="white"/>
</svg>
