<svg width="32" height="32" viewBox="0 0 32 32" fill="none" xmlns="http://www.w3.org/2000/svg">
<path fill-rule="evenodd" clip-rule="evenodd" d="M12.6667 6.6665V5.99984C12.6667 4.15889 11.1743 2.6665 9.33333 2.6665C7.49238 2.6665 6 4.15889 6 5.99984V13.3332C6 16.3183 7.96193 18.8451 10.6667 19.6946L10.679 19.6985C10.8667 22.4736 13.1773 24.6665 16 24.6665C18.8227 24.6665 21.1333 22.4736 21.321 19.6985L21.3333 19.6946C24.0381 18.8451 26 16.3183 26 13.3332V5.99984C26 4.15889 24.5076 2.6665 22.6667 2.6665C20.8257 2.6665 19.3333 4.15889 19.3333 5.99984V6.6665H12.6667ZM10.6667 5.99984C10.6667 5.26346 10.0697 4.6665 9.33333 4.6665C8.59695 4.6665 8 5.26346 8 5.99984V13.3332C8 15.1948 9.09004 16.8018 10.6667 17.5507V5.99984ZM21.3333 17.5507C22.91 16.8018 24 15.1948 24 13.3332V5.99984C24 5.26346 23.403 4.6665 22.6667 4.6665C21.9303 4.6665 21.3333 5.26346 21.3333 5.99984V17.5507ZM16 13.3332C16.7364 13.3332 17.3333 12.7362 17.3333 11.9998C17.3333 11.2635 16.7364 10.6665 16 10.6665C15.2636 10.6665 14.6667 11.2635 14.6667 11.9998C14.6667 12.7362 15.2636 13.3332 16 13.3332Z" fill="white"/>
<path d="M14 26.6665H18L20 29.3332H12L14 26.6665Z" fill="white"/>
</svg>
