<svg width="73" height="73" viewBox="0 0 73 73" fill="none" xmlns="http://www.w3.org/2000/svg">
<rect x="0.568047" y="0.568047" width="71.3167" height="71.3167" fill="#0232FF"/>
<rect x="0.568047" y="0.568047" width="71.3167" height="71.3167" stroke="url(#paint0_linear_4093_486)" stroke-width="1.13609"/>
<path d="M44.7409 54.7924H17.1183C16.2126 54.7924 15.307 54.3396 14.6277 53.6603C13.9485 52.9811 13.722 52.0754 13.722 50.9433L13.9485 48.9056C14.1749 47.3207 15.307 42.1132 17.7975 40.9811H18.0239L22.5522 39.849C22.3258 39.1698 22.3258 38.7169 22.3258 38.2641C22.3258 38.0377 22.3258 37.8113 22.0994 37.5849C22.0994 37.5849 22.0994 37.5849 22.0994 37.3584V37.132C20.9673 36.2264 20.5145 35.0943 20.2881 33.5094C20.0617 31.9245 20.2881 30.566 20.9673 29.4339C20.9673 28.9811 20.9673 28.7547 20.9673 28.3018C20.9673 26.7169 20.9673 25.8113 21.1937 25.132C22.3258 20.8301 26.1749 18.1132 31.156 18.1132C35.6843 18.1132 39.7598 21.0566 40.6654 25.132C40.8919 25.8113 40.8919 26.7169 40.8919 28.3018C40.8919 28.7547 40.8919 28.9811 40.8919 29.4339C41.5711 30.566 41.7975 31.9245 41.5711 33.7358C41.3447 35.0943 40.8919 36.2264 39.9862 37.132V37.3584C39.9862 37.3584 39.9862 37.3584 39.9862 37.5849C39.7598 38.4905 39.5334 39.3962 39.0805 40.3018L43.8353 40.9811C44.0617 40.9811 44.0617 40.9811 44.2881 41.2075C46.7786 42.3396 47.9107 47.5471 48.1371 49.132L48.3636 51.1698C48.3636 52.0754 48.1371 53.2075 47.4579 53.8867C46.5522 54.3396 45.6466 54.7924 44.7409 54.7924ZM61.4956 48.9056C61.2692 47.3207 60.1371 42.1132 57.6466 40.9811C57.4202 40.9811 57.4202 40.9811 57.1937 40.7547L52.439 40.0754C52.8919 39.1698 53.1183 38.2641 53.3447 37.3584C53.3447 37.3584 53.3447 37.3584 53.3447 37.132V36.9056C54.2503 36 54.9296 34.8679 55.156 33.283C55.3824 31.6981 55.156 30.1132 54.4768 28.9811C54.4768 28.5283 54.4768 28.3018 54.4768 27.849C54.4768 26.4905 54.4768 25.3584 54.2503 24.6792C53.1183 21.0566 49.2692 18.1132 44.7409 18.1132C43.156 18.1132 41.7975 18.3396 40.439 19.0188C41.3447 19.6981 42.0239 20.3773 42.4768 21.283C43.156 21.0566 44.0617 21.0566 44.7409 21.0566C47.4579 21.0566 50.8541 22.6415 51.7598 26.0377C51.9862 26.4905 51.9862 27.3962 51.9862 28.5283C51.9862 28.9811 51.9862 29.4339 51.9862 29.8867C51.9862 30.1132 51.9862 30.566 52.2126 30.7924C52.8919 31.4717 52.6654 32.6037 52.6654 33.283C52.6654 33.9622 52.2126 34.8679 51.5334 35.3207C51.3069 35.5471 51.0805 35.7735 50.8541 36.2264V36.9056C50.6277 37.8113 50.4013 38.7169 49.9485 39.3962C49.9485 39.6226 49.722 39.849 49.722 40.0754C49.722 40.3018 49.722 40.9811 49.722 41.4339C49.722 42.1132 50.1749 42.566 50.8541 42.566L56.5145 43.4716C57.4202 44.1509 58.5522 47.0943 58.7786 49.132L59.0051 51.1698C59.0051 51.3962 59.0051 51.6226 58.7786 51.849C58.7786 51.849 58.5522 52.0754 58.3258 52.0754H51.7598C51.7598 52.9811 51.5334 53.8867 51.0805 54.7924H58.3258C59.2315 54.7924 60.1371 54.3396 60.8164 53.6603C61.4956 52.9811 61.722 51.849 61.722 50.9433L61.4956 48.9056Z" fill="white"/>
<defs>
<linearGradient id="paint0_linear_4093_486" x1="72.4528" y1="36.2264" x2="2.66262e-06" y2="36.2264" gradientUnits="userSpaceOnUse">
<stop stop-color="#0232FF"/>
<stop offset="0.345" stop-color="#9A00FF"/>
<stop offset="0.69" stop-color="#FFD300"/>
<stop offset="1" stop-color="#0232FF"/>
</linearGradient>
</defs>
</svg>
