<svg width="169" height="156" viewBox="0 0 169 156" fill="none" xmlns="http://www.w3.org/2000/svg">
<g clip-path="url(#clip0_675_17902)">
<path d="M117.757 64.572C214.973 29.353 311.23 -8.31566 407.26 -46.6332C407.073 -47.0712 406.984 -47.2983 406.797 -47.7363C307.431 -10.6274 208.121 26.5708 107.934 61.4249C155.848 129.932 203.648 198.513 249.54 268.383H252.349C209.079 199.413 163.576 131.895 117.757 64.5801V64.572Z" fill="#FF40FF"/>
<path d="M137.395 70.9942C229.592 35.2586 320.702 -3.15222 410.885 -43.6952C410.715 -44.1249 410.633 -44.3438 410.463 -44.7734C317.072 -5.30057 223.047 32.6239 128.024 68.0027C172.149 134.05 215.707 200.43 256.779 268.383H259.499C220.895 201.322 179.531 135.931 137.403 70.9861L137.395 70.9942Z" fill="#FF40FF"/>
<path d="M155.676 76.6093C242.841 40.7419 328.798 1.91322 413.191 -40.1038C413.037 -40.5176 412.956 -40.7285 412.802 -41.1504C325.354 -0.0582235 236.641 38.2755 146.794 73.786C187.63 137.7 227.46 202.182 264.405 268.384H266.974C232.346 203.05 194.615 139.501 155.676 76.6012V76.6093Z" fill="#FF40FF"/>
<path d="M173.629 82.2645C256.135 45.7773 337.287 6.02914 416.153 -37.8236C416.007 -38.2292 415.934 -38.432 415.796 -38.8457C334.037 4.22831 250.267 43.4735 165.233 79.62C202.49 141.441 238.272 204.024 270.837 268.383H273.3C242.892 204.875 209.103 143.152 173.637 82.2564L173.629 82.2645Z" fill="#FF40FF"/>
<path d="M97.7455 58.2318C199.91 23.5742 301.262 -13.3295 402.98 -49.244C402.777 -49.6981 402.679 -49.9251 402.476 -50.3711C297.317 -15.7865 192.783 20.6469 87.5186 54.9234C139.254 125.925 191.282 196.716 242.092 268.383H244.989C196.947 197.616 147.298 127.96 97.7455 58.2318V58.2318Z" fill="#FF40FF"/>
<path d="M82.7378 82.0039C35.1965 144.411 -12.8641 206.421 -60.9897 268.383H-57.6136C-10.3889 210.011 36.4626 151.34 82.7378 92.2228C129.013 151.34 175.848 210.028 223.097 268.383H226.482C178.34 206.438 130.287 144.411 82.7459 82.0039H82.7378Z" fill="#FF40FF"/>
<path d="M83.2232 102.75C38.8477 158.451 -6.15278 213.681 -51.77 268.384H-48.1181C-3.5883 217.049 40.1624 165.025 83.2313 112.473C126.3 165.025 170.051 217.057 214.597 268.384H218.249C172.615 213.681 127.615 158.451 83.2313 102.75H83.2232Z" fill="#FF40FF"/>
<path d="M82.8996 60.6016C32.3133 129.876 -18.6709 198.85 -68.8916 268.384H-65.7807C-16.2666 202.654 33.5561 137.151 82.9077 71.2997C132.259 137.151 182.066 202.671 231.604 268.384H234.715C184.47 198.867 133.494 129.876 82.9077 60.6016H82.8996Z" fill="#FF40FF"/>
<path d="M58.214 61.3616C-41.8624 26.5255 -141.039 -10.7027 -240.32 -47.7363C-240.507 -47.2984 -240.596 -47.0714 -240.783 -46.6335C-144.834 -8.39977 -48.7066 29.3069 48.3937 64.516C2.59255 131.853 -42.8923 199.384 -86.1309 268.383H-83.3251C-37.4672 198.484 10.3126 129.89 58.2059 61.3616H58.214Z" fill="#FF40FF"/>
<path d="M38.1196 67.7285C-56.7904 32.3226 -150.67 -5.6877 -243.983 -45.1016C-244.153 -44.6716 -244.234 -44.4525 -244.404 -44.0225C-154.296 -3.54582 -63.3275 34.9594 28.76 70.7223C-13.342 135.749 -54.6816 201.231 -93.2636 268.384H-90.5547C-49.5071 200.339 -5.96951 133.867 38.1277 67.7366L38.1196 67.7285Z" fill="#FF40FF"/>
<path d="M19.3496 73.7336C-70.5976 38.2262 -159.425 -0.0873629 -246.979 -41.1504C-247.133 -40.7286 -247.214 -40.5259 -247.368 -40.1042C-162.873 1.87535 -76.8126 40.6918 10.4571 76.5479C-28.553 139.46 -66.3543 203.038 -101.04 268.384H-98.4678C-61.4617 202.162 -21.551 137.66 19.3577 73.7336H19.3496Z" fill="#FF40FF"/>
<path d="M0.917761 79.5582C-84.2278 43.4231 -168.107 4.19845 -249.974 -38.8457C-250.121 -38.4402 -250.194 -38.2375 -250.332 -37.8239C-171.362 5.99872 -90.1033 45.7262 -7.49779 82.2018C-43.0346 143.111 -76.8916 204.855 -107.356 268.383H-104.889C-72.2659 204.003 -36.4125 141.4 0.909662 79.5663L0.917761 79.5582Z" fill="#FF40FF"/>
<path d="M78.2912 54.6502C-26.9654 20.3399 -131.491 -16.1373 -236.659 -50.6992C-236.862 -50.2448 -236.959 -50.0176 -237.162 -49.5712C-135.428 -13.6865 -34.0837 23.2694 68.0723 57.9531C18.4878 127.775 -31.1941 197.507 -79.2527 268.384H-76.3632C-25.5368 196.615 26.5314 125.746 78.2993 54.6502H78.2912Z" fill="#FF40FF"/>
<path d="M77.6039 -214.357C75.5899 -129.572 74.4611 -44.7613 73.5191 40.0489C-29.5342 7.78001 -132.125 -26.1019 -235.795 -56.3768C-235.812 -55.8661 -235.828 -55.6068 -235.844 -55.0961C-130.2 -21.7491 -25.4982 14.4835 79.8534 48.7464C79.8371 -38.9495 79.8777 -126.653 80.2757 -214.349H77.6039V-214.357Z" fill="#FF40FF"/>
<path d="M87.1197 48.7464C192.31 14.5483 296.858 -21.6114 402.325 -54.9745C402.309 -55.4852 402.293 -55.7446 402.276 -56.2552C298.784 -25.9803 196.356 7.83677 93.4656 40.0489C92.523 -44.7532 91.3692 -129.572 89.2079 -214.357H86.5347C87.0872 -126.662 87.1441 -38.9576 87.1278 48.7383L87.1197 48.7464Z" fill="#FF40FF"/>
</g>
<rect width="139" height="156" transform="translate(15)" fill="#0D3AFF"/>
<defs>
<clipPath id="clip0_675_17902">
<rect width="169" height="88" fill="white" transform="translate(0 34)"/>
</clipPath>
</defs>
</svg>
