<svg width="25" height="24" viewBox="0 0 25 24" fill="none" xmlns="http://www.w3.org/2000/svg">
<path d="M14.5 20C14.5 21.1 13.6 22 12.5 22C11.4 21.9999 10.5 21.1 10.5 20H14.5ZM5.20506 4.05469C5.5944 3.6655 6.2259 3.66547 6.61522 4.05469L21.1855 18.625C21.5746 19.0143 21.5747 19.6459 21.1855 20.0352C20.7962 20.4244 20.1648 20.4243 19.7754 20.0352L18.7402 19H5.91014C5.02018 19 4.58007 17.9201 5.20994 17.29L6.49998 16V11C6.49998 9.74003 6.79055 8.5703 7.31053 7.57031L5.20506 5.46484C4.81579 5.07548 4.81573 4.44402 5.20506 4.05469ZM8.83983 9.09961C8.61983 9.67961 8.49998 10.32 8.49998 11V17H16.5V16.7598L8.83983 9.09961ZM12.5 2.5C13.33 2.5 14 3.17 14 4V4.67969C16.87 5.35969 18.5 7.93 18.5 11V13.0996L16.5 11.0996V11C16.5 8.52 14.99 6.5 12.5 6.5C12.3101 6.50001 12.1301 6.52981 11.9502 6.5498L10.3105 4.91016C10.5304 4.83019 10.7601 4.73966 11 4.67969V4C11 3.17003 11.67 2.50006 12.5 2.5Z" fill="white"/>
</svg>
