<svg width="24" height="24" viewBox="0 0 24 24" fill="none" xmlns="http://www.w3.org/2000/svg">
<rect width="24" height="24" rx="12" fill="#331E4C"/>
<path d="M7.75774 7.75725C7.36721 8.14777 7.36721 8.78094 7.75774 9.17146L10.5863 12L7.75781 14.8285C7.36728 15.219 7.36728 15.8522 7.75781 16.2427C8.14833 16.6332 8.7815 16.6332 9.17202 16.2427L12.0005 13.4142L14.8288 16.2425C15.2193 16.6331 15.8525 16.6331 16.243 16.2425C16.6335 15.852 16.6335 15.2188 16.243 14.8283L13.4147 12L16.2431 9.17161C16.6336 8.78109 16.6336 8.14792 16.2431 7.7574C15.8526 7.36688 15.2194 7.36688 14.8289 7.7574L12.0005 10.5858L9.17195 7.75725C8.78143 7.36672 8.14826 7.36672 7.75774 7.75725Z" fill="white" fill-opacity="0.55"/>
</svg>
