<svg width="17" height="16" viewBox="0 0 17 16" fill="none" xmlns="http://www.w3.org/2000/svg">
<circle cx="8.75016" cy="7.99998" r="6.66667" fill="#331E4C"/>
<path fill-rule="evenodd" clip-rule="evenodd" d="M6.88265 7.12055L8.35777 6.04795C8.5915 5.87799 8.90817 5.87799 9.1419 6.04795L10.617 7.12055C10.8505 7.29029 10.9482 7.59102 10.859 7.86562L10.2954 9.60175C10.2062 9.87649 9.95017 10.0626 9.6613 10.0626H7.83837C7.5495 10.0626 7.29348 9.87649 7.20428 9.60175L6.64062 7.86562C6.55149 7.59102 6.64918 7.29029 6.88265 7.12055ZM8.74984 14.0008C5.441 14.0008 2.74902 11.309 2.74902 8.00002C2.74902 4.69119 5.441 1.99921 8.74984 1.99921C12.0588 1.99921 14.7506 4.69119 14.7506 8.00002C14.7506 11.309 12.0588 14.0008 8.74984 14.0008ZM8.74984 12.9999C8.2971 12.9999 7.85824 12.9394 7.4409 12.8261L6.64953 11.3666C6.55353 11.1896 6.38264 11.0654 6.1846 11.0288L4.56218 10.7291C4.08718 10.0027 3.79594 9.14575 3.75499 8.22489L4.88652 7.03382C5.02524 6.88775 5.09051 6.68689 5.06411 6.48722L4.85072 4.87359C5.40864 4.17919 6.14788 3.63636 6.9959 3.31766L8.46244 4.0182C8.64417 4.10501 8.85544 4.10501 9.03717 4.0182L10.5038 3.31765C11.3518 3.63633 12.091 4.17913 12.6489 4.87351L12.4355 6.48722C12.4091 6.68689 12.4744 6.88775 12.6131 7.03382L13.7447 8.22489C13.7037 9.14575 13.4125 10.0027 12.9375 10.729L11.315 11.0288C11.117 11.0654 10.9461 11.1896 10.8501 11.3666L10.0588 12.8261C9.64144 12.9394 9.20257 12.9999 8.74984 12.9999Z" fill="white"/>
<path fill-rule="evenodd" clip-rule="evenodd" d="M10.0835 12C10.0835 10.5272 11.2774 9.33331 12.7502 9.33331C14.2229 9.33331 15.4168 10.5272 15.4168 12C15.4168 13.4727 14.2229 14.6666 12.7502 14.6666C11.2774 14.6666 10.0835 13.4727 10.0835 12Z" fill="#3D0E17"/>
<path d="M11.6829 11.3658C11.6829 10.7924 12.1282 10.3933 12.7605 10.3933C13.3634 10.3933 13.773 10.7609 13.773 11.265C13.773 11.6179 13.6196 11.8637 13.0987 12.3741L12.4475 13.0148V13.0505H13.8171V13.5H11.7123V13.1345L12.7626 12.0779C13.1449 11.6914 13.2373 11.5465 13.2373 11.3154C13.2373 11.0403 13.0483 10.8281 12.7311 10.8281C12.4013 10.8281 12.1913 11.0466 12.1913 11.3658H11.6829Z" fill="white"/>
</svg>
