<svg width="61" height="60" viewBox="0 0 61 60" fill="none" xmlns="http://www.w3.org/2000/svg">
<rect x="0.5" width="60" height="60" rx="30" fill="white"/>
<path d="M19.2499 41.4741C18.8952 41.4741 18.5982 41.3545 18.3589 41.1152C18.1196 40.8759 17.9999 40.5789 17.9999 40.2242C17.9999 39.8695 18.1196 39.5725 18.3589 39.3332C18.5982 39.0939 18.8952 38.9742 19.2499 38.9742H21.0128V26.5383C21.0128 24.2968 21.7045 22.315 23.0881 20.5928C24.4716 18.8705 26.2478 17.769 28.4166 17.2883V16.2498C28.4166 15.6729 28.6196 15.1815 29.0256 14.7755C29.4315 14.3695 29.923 14.1665 30.4999 14.1665C31.0768 14.1665 31.5682 14.3695 31.9742 14.7755C32.3802 15.1815 32.5832 15.6729 32.5832 16.2498V17.2883C34.752 17.769 36.5282 18.8705 37.9117 20.5928C39.2952 22.315 39.987 24.2968 39.987 26.5383V38.9742H41.7498C42.1045 38.9742 42.4015 39.0939 42.6408 39.3332C42.8802 39.5725 42.9998 39.8695 42.9998 40.2242C42.9998 40.5789 42.8802 40.8759 42.6408 41.1152C42.4015 41.3545 42.1045 41.4741 41.7498 41.4741H19.2499ZM30.4999 46.1536C29.6687 46.1536 28.9588 45.8593 28.3701 45.2706C27.7814 44.6819 27.4871 43.972 27.4871 43.1408H33.5127C33.5127 43.972 33.2183 44.6819 32.6297 45.2706C32.041 45.8593 31.3311 46.1536 30.4999 46.1536ZM16.1089 26.5222C15.7542 26.5222 15.4572 26.3871 15.2179 26.1168C14.9786 25.8465 14.876 25.5287 14.9102 25.1633C15.0897 23.0906 15.6463 21.1665 16.5801 19.3908C17.5138 17.6152 18.7222 16.0821 20.2051 14.7915C20.4807 14.5501 20.7943 14.4379 21.1458 14.455C21.4973 14.472 21.7798 14.627 21.9935 14.9197C22.2072 15.2124 22.2862 15.5276 22.2307 15.8652C22.1751 16.2028 22.0095 16.4955 21.7339 16.7434C20.5437 17.8032 19.5774 19.0564 18.8348 20.503C18.0923 21.9496 17.6313 23.518 17.4518 25.2081C17.4069 25.5735 17.2633 25.8839 17.0208 26.1392C16.7782 26.3945 16.4743 26.5222 16.1089 26.5222ZM44.8909 26.5222C44.5255 26.5222 44.2215 26.3945 43.979 26.1392C43.7365 25.8839 43.5928 25.5735 43.548 25.2081C43.3685 23.518 42.9075 21.9496 42.1649 20.503C41.4224 19.0564 40.4561 17.8032 39.2659 16.7434C38.9902 16.4955 38.8247 16.2028 38.7691 15.8652C38.7135 15.5276 38.7926 15.2124 39.0063 14.9197C39.2199 14.627 39.5025 14.472 39.854 14.455C40.2055 14.4379 40.519 14.5501 40.7947 14.7915C42.2776 16.0821 43.4859 17.6152 44.4197 19.3908C45.3535 21.1665 45.9101 23.0906 46.0896 25.1633C46.1237 25.5287 46.0212 25.8465 45.7819 26.1168C45.5426 26.3871 45.2456 26.5222 44.8909 26.5222Z" fill="#205BC8"/>
</svg>
