<svg width="24" height="25" viewBox="0 0 24 25" fill="none" xmlns="http://www.w3.org/2000/svg">
<rect y="0.5" width="24" height="24" rx="12" fill="#0A0A61"/>
<path d="M7.75749 8.25725C7.36697 8.64777 7.36697 9.28094 7.75749 9.67146L10.586 12.5L7.75756 15.3285C7.36704 15.719 7.36704 16.3522 7.75756 16.7427C8.14809 17.1332 8.78125 17.1332 9.17178 16.7427L12.0002 13.9142L14.8286 16.7425C15.2191 17.1331 15.8523 17.1331 16.2428 16.7425C16.6333 16.352 16.6333 15.7188 16.2428 15.3283L13.4145 12.5L16.2428 9.67161C16.6334 9.28109 16.6334 8.64792 16.2428 8.2574C15.8523 7.86688 15.2192 7.86688 14.8286 8.2574L12.0002 11.0858L9.17171 8.25725C8.78118 7.86672 8.14802 7.86672 7.75749 8.25725Z" fill="white" fill-opacity="0.55"/>
</svg>
