<svg width="45" height="46" viewBox="0 0 45 46" fill="none" xmlns="http://www.w3.org/2000/svg">
<circle cx="22.3564" cy="23.1025" r="15.6767" fill="url(#paint0_radial_1422_4366)"/>
<path fill-rule="evenodd" clip-rule="evenodd" d="M29.8835 36.8573C28.2013 37.4739 26.3841 37.8104 24.4882 37.8104C15.8302 37.8104 8.81151 30.7917 8.81151 22.1337C8.81151 16.2035 12.1042 11.0424 16.9611 8.37891C10.9611 10.5782 6.67969 16.3403 6.67969 23.1025C6.67969 31.7605 13.6984 38.7792 22.3564 38.7792C25.0842 38.7792 27.6493 38.0825 29.8835 36.8573Z" fill="#00004B" fill-opacity="0.16" style="mix-blend-mode:multiply"/>
<path fill-rule="evenodd" clip-rule="evenodd" d="M13.293 15.9361C13.893 14.839 15.8071 13.1503 18.663 15.1719C17.673 14.8515 15.2131 14.5557 13.293 15.9361ZM15.0079 24.9026H29.7112C29.0787 28.3794 26.0279 31.0159 22.3596 31.0159C18.6913 31.0159 15.6404 28.3794 15.0079 24.9026ZM13.7734 21.7846C12.9546 18.6263 17.8344 15.3205 19.9399 20.6345C17.9347 18.5526 15.4507 18.8031 13.7734 21.7846ZM25.9626 15.2662C26.8541 14.3894 29.1744 13.326 31.3235 16.0873C30.4686 15.4942 28.1995 14.4997 25.9626 15.2662ZM24.5896 20.6325C24.7804 17.4809 29.6422 15.7181 30.7435 21.4997C29.1133 19.3246 26.6546 18.3571 24.5896 20.6325Z" fill="#00004B"/>
<path d="M24.3611 30.0996C23.7369 30.2718 23.073 30.3645 22.3846 30.3645C21.6812 30.3645 21.0033 30.2677 20.3672 30.0881C20.8312 29.4936 21.5512 29.1118 22.3597 29.1118C23.1734 29.1118 23.8974 29.4985 24.3611 30.0996Z" fill="#F55B58"/>
<path d="M28.4996 26.7709H16.2693C16.0858 26.3846 15.9476 25.9773 15.8608 25.5542H28.9081C28.8213 25.9773 28.6832 26.3846 28.4996 26.7709Z" fill="white"/>
<g opacity="0.3">
<path d="M6.07629 13.9641C6.9295 15.5704 7.01868 18.2528 6.99006 19.6304L1.84957 23.0359C1.84957 20.7349 1.11522 17.2373 0.380859 15.3044L2.30854 7.84908C2.36878 8.6946 2.6365 9.40143 3.01447 10.0378C3.27989 8.43562 4.67197 7.21387 6.34941 7.21387H36.7755C38.6425 7.21387 40.1561 8.72739 40.1561 10.5944C40.1561 12.4614 38.6425 13.9749 36.7755 13.9749H6.34941C6.25746 13.9749 6.16638 13.9713 6.07629 13.9641Z" fill="#383838"/>
<path d="M44.7124 15.3044L42.7625 7.84908C42.6349 9.62002 41.5866 10.7825 40.5214 11.9637C40.0365 12.5014 39.5481 13.043 39.1414 13.6477C38.1015 15.194 37.9963 18.1577 38.0272 19.6304L43.2268 23.0359C43.2268 20.7349 43.9696 17.2373 44.7124 15.3044Z" fill="#383838"/>
</g>
<rect x="1.95996" y="5.64453" width="41.1514" height="7.83836" rx="3.91918" fill="#F59B08"/>
<path d="M10.3894 5.64453L18.4727 5.64453V13.4829H10.3894V5.64453Z" fill="#711533"/>
<path d="M26.4013 5.64453L34.4846 5.64453V13.4829H26.4013V5.64453Z" fill="#711533"/>
<path d="M44.96 15.7943L43.0102 8.33897C42.8245 10.9161 40.689 12.2047 39.3891 14.1376C38.3491 15.6839 38.2439 18.6476 38.2749 20.1203L43.4744 23.5258C43.4744 21.2248 44.2172 17.7272 44.96 15.7943Z" fill="#711533"/>
<path d="M0.135742 15.7943L2.06343 8.33897C2.24702 10.9161 4.35829 12.2047 5.64341 14.1376C6.67151 15.6839 6.77554 18.6476 6.74494 20.1203L1.60445 23.5258C1.60445 21.2248 0.870098 17.7272 0.135742 15.7943Z" fill="#711533"/>
<path d="M34.0204 7.61815C34.0204 9.98557 35.9617 11.9047 38.3563 11.9047C40.751 11.9047 42.6922 9.98557 42.6922 7.61815C42.6922 5.25072 40.751 3.33154 38.3563 3.33154C35.9617 3.33154 34.0204 5.25072 34.0204 7.61815Z" fill="#D08A01"/>
<path d="M10.9511 7.61815C10.9511 9.98557 9.03196 11.9047 6.66453 11.9047C4.29711 11.9047 2.37793 9.98557 2.37793 7.61815C2.37793 5.25072 4.29711 3.33154 6.66453 3.33154C9.03196 3.33154 10.9511 5.25072 10.9511 7.61815Z" fill="#D08A01"/>
<path d="M39.8017 10.8839C37.4071 10.8839 35.4658 8.96477 35.4658 6.59734C35.4658 5.47621 35.9012 4.4556 36.6138 3.69174C37.1471 3.46011 37.7365 3.33154 38.3563 3.33154C40.751 3.33154 42.6922 5.25072 42.6922 7.61815C42.6922 8.73928 42.2568 9.75988 41.5442 10.5237C41.0109 10.7554 40.4215 10.8839 39.8017 10.8839Z" fill="#FFD847"/>
<path d="M5.23549 10.8839C7.60292 10.8839 9.5221 8.96477 9.5221 6.59734C9.5221 5.47617 9.09167 4.45554 8.38704 3.69167C7.85989 3.46009 7.27722 3.33154 6.66453 3.33154C4.29711 3.33154 2.37793 5.25072 2.37793 7.61815C2.37793 8.73931 2.80836 9.75994 3.51299 10.5238C4.04013 10.7554 4.6228 10.8839 5.23549 10.8839Z" fill="#FFD847"/>
<defs>
<radialGradient id="paint0_radial_1422_4366" cx="0" cy="0" r="1" gradientUnits="userSpaceOnUse" gradientTransform="translate(22.3564 7.42578) scale(31.9658)">
<stop stop-color="#F9C700"/>
<stop offset="1" stop-color="#F79C01"/>
</radialGradient>
</defs>
</svg>
