<svg width="21" height="20" viewBox="0 0 21 20" fill="none" xmlns="http://www.w3.org/2000/svg">
<g clip-path="url(#clip0_1124_14463)">
<rect x="0.5" width="20" height="20" rx="10" fill="white" fill-opacity="0.25"/>
<g filter="url(#filter0_d_1124_14463)">
<rect width="20" height="20" rx="10" fill="#19C201"/>
<path fill-rule="evenodd" clip-rule="evenodd" d="M12.5124 7.44981C13.1794 8.30455 13.9352 9.27322 14.0599 10.8188C14.0599 10.8188 14.0832 11.1205 14.0832 11.2283C14.0832 13.3676 12.2577 15.1089 10.0118 15.1151H10.0089C10.0063 15.1157 10.0029 15.1152 9.99984 15.1151C7.74837 15.1151 5.9165 13.3714 5.9165 11.2283C5.9165 11.1547 5.91671 11.0811 5.92137 11.0077C5.98783 8.8018 7.13008 8.24932 7.17859 8.22697C7.24395 8.19618 7.31972 8.19851 7.38419 8.23056C7.44799 8.26303 7.49184 8.32249 7.50226 8.39082C7.50447 8.40517 7.71405 9.72245 8.63917 9.91057C8.64294 9.34334 8.66976 8.48445 8.87243 7.72047C9.16445 6.62311 10.0003 5.47302 11.0021 4.79065C11.071 4.74299 11.162 4.73688 11.2378 4.77421C11.3133 4.81132 11.3609 4.88533 11.3609 4.96632C11.3609 5.97437 11.8943 6.65776 12.5118 7.44907L12.5124 7.44981ZM8.74374 12.9505C8.74374 13.7343 9.37777 14.372 10.1572 14.372C10.9366 14.372 11.5706 13.7343 11.5706 12.9505C11.5706 12.9093 11.5677 12.8709 11.5647 12.8327C11.5152 12.1879 11.2334 11.8096 10.9608 11.4439C10.7703 11.1882 10.5752 10.9264 10.4751 10.6028C10.2501 10.8521 10.0725 11.1631 9.9982 11.4554C9.91473 11.7851 9.90779 12.1505 9.90779 12.4671C9.90779 12.59 9.80244 12.6895 9.67224 12.6895C9.2754 12.6895 9.0311 12.4347 8.89442 12.1576C8.8215 12.3077 8.755 12.5333 8.74557 12.8639C8.7437 12.894 8.74372 12.919 8.74374 12.9434C8.74374 12.9458 8.74374 12.9482 8.74374 12.9505Z" fill="white"/>
</g>
</g>
<defs>
<filter id="filter0_d_1124_14463" x="-2" y="-1" width="24" height="24" filterUnits="userSpaceOnUse" color-interpolation-filters="sRGB">
<feFlood flood-opacity="0" result="BackgroundImageFix"/>
<feColorMatrix in="SourceAlpha" type="matrix" values="0 0 0 0 0 0 0 0 0 0 0 0 0 0 0 0 0 0 127 0" result="hardAlpha"/>
<feOffset dy="1"/>
<feGaussianBlur stdDeviation="1"/>
<feColorMatrix type="matrix" values="0 0 0 0 0 0 0 0 0 0 0 0 0 0 0 0 0 0 0.15 0"/>
<feBlend mode="normal" in2="BackgroundImageFix" result="effect1_dropShadow_1124_14463"/>
<feBlend mode="normal" in="SourceGraphic" in2="effect1_dropShadow_1124_14463" result="shape"/>
</filter>
<clipPath id="clip0_1124_14463">
<rect x="0.5" width="20" height="20" rx="10" fill="white"/>
</clipPath>
</defs>
</svg>
