<svg width="212" height="150" viewBox="0 0 212 150" fill="none" xmlns="http://www.w3.org/2000/svg">
<path d="M43.8231 71.8647L35.0351 70.6687C32.4351 70.3047 30.0431 70.4607 27.4431 70.2007C19.1231 69.3167 14.1311 62.7647 14.1311 53.3527C14.1311 44.0447 19.3311 36.4007 28.9511 36.4007C38.5711 36.4007 43.7711 44.0447 43.7711 53.3527C43.7711 59.3327 41.6391 63.7007 37.8951 66.0927L37.9471 66.3007L43.5631 66.5087L43.8231 71.8647ZM28.9511 64.9487C34.0991 64.9487 36.7511 60.1127 36.7511 53.3527C36.7511 46.5927 34.0991 41.7047 28.9511 41.7047C23.8031 41.7047 21.1511 46.5927 21.1511 53.3527C21.1511 60.1127 23.8031 64.9487 28.9511 64.9487ZM61.7992 70.2527C57.1712 70.2527 53.8432 68.9527 51.7112 66.7167C49.7872 64.6367 48.9552 61.8287 48.9552 57.5647V37.0767H55.4552V57.3047C55.4552 59.9047 55.8712 61.6207 56.7552 62.8167C57.6392 64.0127 59.5632 64.9487 62.0072 64.9487C64.5032 64.9487 66.2192 64.1167 67.2072 63.0247C68.5592 61.5167 68.7672 59.4367 68.7672 57.3567V37.0767H74.7992V57.4087C74.7992 60.9967 74.1752 64.0127 72.4592 66.0407C70.4312 68.4847 66.8432 70.2527 61.7992 70.2527ZM81.7152 69.6807V37.0767H88.2152V69.6807H81.7152ZM93.1914 69.6807V66.9247L106.867 42.2247H93.9714V37.0767H115.395V39.8327L101.251 64.5327H116.175L114.979 69.6807H93.1914Z" fill="white"/>
<path d="M35.5598 111.954L48.0918 79.9743L52.5638 78.8823L65.4078 111.954H58.2838L55.0598 103.322H44.6078L41.3838 111.954H35.5598ZM46.3758 98.3823H53.1878L49.7558 89.2303L46.3758 98.3823ZM69.3492 111.954V79.3503H77.7732C87.7572 79.3503 91.9692 82.4183 91.9692 89.1783C91.9692 93.0783 90.3572 95.8863 86.8212 98.0183L94.5172 111.954H87.4452L81.1012 99.6823H75.8492V111.954H69.3492ZM75.8492 94.7943H79.1252C83.0252 94.7943 85.1052 93.3903 85.1052 89.6463C85.1052 85.9023 83.0252 84.4983 79.1252 84.4983H75.8492V94.7943ZM98.7008 111.954V79.3503H118.721L117.161 84.4983H105.201V93.4423H116.173L114.977 98.5903H105.201V106.806H119.345L118.149 111.954H98.7008ZM124.142 111.954V79.3503H128.614L144.63 101.086V79.3503H150.194V111.954H145.462L129.706 91.3623V111.954H124.142ZM154.134 111.954L166.666 79.9743L171.138 78.8823L183.982 111.954H176.858L173.634 103.322H163.182L159.958 111.954H154.134ZM164.95 98.3823H171.762L168.33 89.2303L164.95 98.3823Z" fill="white"/>
<path d="M164.52 63.6495C152.234 64.1067 139.556 64.3514 127.27 64.4565C127.187 54.4883 127.164 44.2708 127.254 34.3026C127.281 30.6216 127.338 26.9178 127.386 23.2369C137.309 23.3923 147.481 23.6187 157.399 24.0234C160.33 24.1422 164.36 24.3183 167.259 24.4806C167.159 26.5657 167.031 28.6485 166.896 30.7291C166.772 28.8787 166.663 27.0276 166.567 25.1757C154.612 25.793 142.451 26.1268 130.468 26.3188C130.589 35.2491 130.642 44.3806 130.61 53.2971C130.61 55.9195 130.585 58.5556 130.564 61.1666C140.978 61.274 151.772 61.4935 162.147 61.8525C163.117 61.8776 164.909 61.953 166.169 62.0056C166.358 57.3279 166.592 52.5129 166.896 47.8717C167.241 53.0136 167.47 58.3567 167.682 63.5169C167.216 63.5466 165.042 63.6198 164.52 63.6495ZM44.0971 127.46C32.2083 126.756 20.1573 126.436 8.23192 126.317C8.29899 117.369 8.24869 108.422 8.08103 99.4761C8.02768 96.7326 7.96062 93.9837 7.87983 91.2295C14.6999 91.0008 21.7119 90.6899 28.4977 90.2212C29.5425 90.1389 30.5896 90.0703 31.6345 89.9789C27.5854 89.6382 23.1569 89.3936 19.0918 89.1832C14.597 88.9569 9.78203 88.7763 5.29632 88.6345L5.25516 89.9697C4.87259 102.63 4.74837 115.292 4.8825 127.957L4.90079 129.637C10.061 129.619 15.619 129.502 20.7974 129.395C28.836 129.189 37.0301 128.903 45.0322 128.4C44.8744 126.23 44.7441 123.37 44.5292 121.212C44.3783 123.032 44.2228 125.506 44.0971 127.46ZM205.308 98.753L205.265 97.8957L204.492 97.9368C200.358 98.1495 195.85 98.3941 191.73 98.753C195.573 99.0708 199.732 99.3269 203.644 99.5235C203.351 105.594 203.141 111.668 203.013 117.745C202.887 123.319 202.809 129.355 202.784 135.032C191.062 135.032 179.173 135.215 167.472 135.684C167.303 131.831 167.072 127.695 166.823 123.927C166.73 122.502 166.622 121.079 166.5 119.657C166.023 125.263 165.741 131.104 165.481 136.74L165.437 137.716C172.119 137.998 178.805 138.196 185.493 138.311C191.538 138.409 198.458 138.473 204.487 138.448H206.202V136.749C206.177 124.11 205.923 111.357 205.308 98.753ZM152.513 50.3455C147.039 45.2402 141.42 40.1463 135.638 35.4114C140.681 41.5707 146.129 47.5448 151.568 53.3566L152.513 54.3648C160.318 47.0624 167.927 39.5603 175.339 31.8585C182.404 24.4875 189.345 17.009 195.824 9.09612C191.853 12.3335 188.017 15.7058 184.235 19.133C173.256 29.1195 162.71 39.5656 152.513 50.3455Z" fill="#EE701C"/>
</svg>
