<svg xmlns="http://www.w3.org/2000/svg" fill="none" viewBox="0 0 80 80"><path fill="#fff" d="M0 0h80v80H0z"/><mask id="a" width="80" height="80" x="0" y="0" maskUnits="userSpaceOnUse"><path fill="#fff" d="M0 0h80v80H0z"/></mask><g mask="url(#a)"><path fill="#fff" d="M40 80c22.0914 0 40-17.9086 40-40S62.0914 0 40 0 0 17.9086 0 40s17.9086 40 40 40z"/><path fill="#fff" d="M0 0h80v80H0z"/><path fill="#BBB" d="M24 57.3714c10.297-3.9717 21.703-3.9717 32 0L52 65.6H28l-4-8.2286z"/><path fill="#BBB" d="M24 57.6h3.2c1.7674 0 3.2 1.4326 3.2 3.2v4.8h-4.2667L24 57.6zM56.0001 57.6h-3.2c-1.7674 0-3.2 1.4326-3.2 3.2v4.8h4.2667l2.1333-8z"/><path fill="#DDD" d="M51.2 44.8H28.8v25.6h22.4V44.8z"/><path fill="#F4F3F2" fill-rule="evenodd" d="M39.9999 54.4c-9.7202 0-17.6-8.1437-17.6-18.1894v-6.8211c0-10.0458 7.8798-18.1895 17.6-18.1895 9.7202 0 17.6 8.1437 17.6 18.1895v6.8211c0 10.0457-7.8798 18.1894-17.6 18.1894z" clip-rule="evenodd"/><path fill="#BBB" fill-rule="evenodd" d="M40.0001 96c14.5514 0 38.4-3.6182 38.4-14.4175v-2.8537c-.0008-3.7939-2.7541-8.1643-6.1506-9.7493L51.2943 59.2l-11.2942 9.7795L28.706 59.2 7.75068 68.9795c-3.40203 1.5876-6.14974 5.95-6.15058 9.7493 0 .7497.00084 2.2371 0 2.8537C1.58557 92.3525 25.4782 96 40.0001 96z" clip-rule="evenodd"/><path fill="#9C9C9C" d="M40 70.4L28.8 59.2 40 68.3637 51.2 59.2 40 70.4z"/><path fill="#9C9C9C" fill-rule="evenodd" d="M48.7999 21.1051c4.8602 0 8.8 4.1615 8.8 9.2949V18.7813c0-5.1129-3.9411-9.29483-8.8027-9.29483h-1.0973L45.39 4.60687c-.5587-1.18021-1.8991-1.70753-3.0203-1.23379L28.5281 9.22105c-3.3864 1.43075-6.1282 5.71195-6.1282 9.56425V30.4c0-5.1334 3.9398-9.2949 8.8-9.2949h17.6z" clip-rule="evenodd"/></g></svg>