<svg width="73" height="73" viewBox="0 0 73 73" fill="none" xmlns="http://www.w3.org/2000/svg">
<mask id="path-1-inside-1_325_28764" fill="white">
<path d="M0 0H72.4528V72.4528H0V0Z"/>
</mask>
<path d="M0 0H72.4528V72.4528H0V0Z" fill="#3073D7"/>
<path d="M0 1H72.4528V-1H0V1ZM72.4528 71.4528H0V73.4528H72.4528V71.4528Z" fill="#28D5FF" mask="url(#path-1-inside-1_325_28764)"/>
<path d="M44.7405 54.7924H17.1179C16.2122 54.7924 15.3066 54.3396 14.6273 53.6603C13.9481 52.9811 13.7217 52.0754 13.7217 50.9433L13.9481 48.9056C14.1745 47.3207 15.3066 42.1132 17.7972 40.9811H18.0236L22.5519 39.849C22.3255 39.1698 22.3255 38.7169 22.3255 38.2641C22.3255 38.0377 22.3255 37.8113 22.099 37.5849C22.099 37.5849 22.099 37.5849 22.099 37.3584V37.132C20.967 36.2264 20.5141 35.0943 20.2877 33.5094C20.0613 31.9245 20.2877 30.566 20.967 29.4339C20.967 28.9811 20.967 28.7547 20.967 28.3018C20.967 26.7169 20.967 25.8113 21.1934 25.132C22.3255 20.8301 26.1745 18.1132 31.1556 18.1132C35.6839 18.1132 39.7594 21.0566 40.6651 25.132C40.8915 25.8113 40.8915 26.7169 40.8915 28.3018C40.8915 28.7547 40.8915 28.9811 40.8915 29.4339C41.5707 30.566 41.7972 31.9245 41.5707 33.7358C41.3443 35.0943 40.8915 36.2264 39.9858 37.132V37.3584C39.9858 37.3584 39.9858 37.3584 39.9858 37.5849C39.7594 38.4905 39.533 39.3962 39.0802 40.3018L43.8349 40.9811C44.0613 40.9811 44.0613 40.9811 44.2877 41.2075C46.7783 42.3396 47.9104 47.5471 48.1368 49.132L48.3632 51.1698C48.3632 52.0754 48.1368 53.2075 47.4575 53.8867C46.5519 54.3396 45.6462 54.7924 44.7405 54.7924ZM61.4953 48.9056C61.2688 47.3207 60.1368 42.1132 57.6462 40.9811C57.4198 40.9811 57.4198 40.9811 57.1934 40.7547L52.4387 40.0754C52.8915 39.1698 53.1179 38.2641 53.3443 37.3584C53.3443 37.3584 53.3443 37.3584 53.3443 37.132V36.9056C54.25 36 54.9292 34.8679 55.1556 33.283C55.3821 31.6981 55.1556 30.1132 54.4764 28.9811C54.4764 28.5283 54.4764 28.3018 54.4764 27.849C54.4764 26.4905 54.4764 25.3584 54.25 24.6792C53.1179 21.0566 49.2688 18.1132 44.7405 18.1132C43.1556 18.1132 41.7972 18.3396 40.4387 19.0188C41.3443 19.6981 42.0236 20.3773 42.4764 21.283C43.1556 21.0566 44.0613 21.0566 44.7405 21.0566C47.4575 21.0566 50.8538 22.6415 51.7594 26.0377C51.9858 26.4905 51.9858 27.3962 51.9858 28.5283C51.9858 28.9811 51.9858 29.4339 51.9858 29.8867C51.9858 30.1132 51.9858 30.566 52.2122 30.7924C52.8915 31.4717 52.6651 32.6037 52.6651 33.283C52.6651 33.9622 52.2122 34.8679 51.533 35.3207C51.3066 35.5471 51.0802 35.7735 50.8538 36.2264V36.9056C50.6273 37.8113 50.4009 38.7169 49.9481 39.3962C49.9481 39.6226 49.7217 39.849 49.7217 40.0754C49.7217 40.3018 49.7217 40.9811 49.7217 41.4339C49.7217 42.1132 50.1745 42.566 50.8538 42.566L56.5141 43.4716C57.4198 44.1509 58.5519 47.0943 58.7783 49.132L59.0047 51.1698C59.0047 51.3962 59.0047 51.6226 58.7783 51.849C58.7783 51.849 58.5519 52.0754 58.3255 52.0754H51.7594C51.7594 52.9811 51.533 53.8867 51.0802 54.7924H58.3255C59.2311 54.7924 60.1368 54.3396 60.816 53.6603C61.4953 52.9811 61.7217 51.849 61.7217 50.9433L61.4953 48.9056Z" fill="white"/>
</svg>
