<svg width="17" height="16" viewBox="0 0 17 16" fill="none" xmlns="http://www.w3.org/2000/svg">
<path d="M8.75 8.66669V4.66669C11.75 4.66669 12.6667 7.33335 12.75 8.66669H8.75Z" fill="#0085E6"/>
<path fill-rule="evenodd" clip-rule="evenodd" d="M10.4167 0.666687C10.6008 0.666687 10.75 0.815926 10.75 1.00002V2.00002H6.75V1.00002C6.75 0.815925 6.89924 0.666687 7.08333 0.666687H10.4167ZM14.1668 4.19652L13.4367 4.92669C14.2567 5.95335 14.75 7.25335 14.75 8.66669C14.75 11.98 12.07 14.6667 8.75 14.6667C5.43 14.6667 2.75 11.98 2.75 8.66669C2.75 5.57869 5.08366 3.03502 8.08333 2.70332V2.00003H9.41667V2.70365C10.571 2.83245 11.6281 3.29181 12.4967 3.98669L13.2293 3.25401C13.3507 3.13263 13.545 3.12267 13.6722 3.23797C13.8499 3.39912 14.0198 3.57069 14.1819 3.74948C14.2982 3.87777 14.2893 4.07409 14.1668 4.19652ZM4.08333 8.66669C4.08333 11.2467 6.17 13.3334 8.75 13.3334C11.33 13.3334 13.4167 11.2467 13.4167 8.66669C13.4167 6.08669 11.33 4.00002 8.75 4.00002C6.17 4.00002 4.08333 6.08669 4.08333 8.66669Z" fill="white"/>
<path d="M11.7502 8C11.9343 8 12.0835 8.14924 12.0835 8.33333L12.0835 9C12.0835 9.18409 11.9343 9.33333 11.7502 9.33333L8.0835 9.33333L8.0835 8L11.7502 8Z" fill="white"/>
</svg>
