<svg width="32" height="32" viewBox="0 0 32 32" fill="none" xmlns="http://www.w3.org/2000/svg">
<path d="M28.0197 18.3406C27.9869 18.357 27.9377 18.3242 27.9377 18.2914C27.8557 16.6844 27.7081 15.1266 27.6261 14.5527C27.6261 13.1589 27.3965 11.7323 27.167 10.6664C27.1506 10.6336 27.1998 10.6008 27.2326 10.6008C28.5444 10.8632 28.9707 11.3551 28.9707 11.3551C28.282 9.79731 27.2818 8.61666 26.1995 7.73118C25.2648 5.77982 24.199 4.87794 24.199 4.87794C24.2809 5.30429 24.2317 5.79622 24.0678 6.30456C24.0514 6.33735 24.0186 6.35375 23.9858 6.33735C22.1984 5.46826 20.3618 5.07471 19.6567 4.95993C18.5909 4.4352 17.4266 4.10724 16.4919 3.84487C16.4591 3.84487 16.4591 3.81208 16.4755 3.79568C17.7218 2.76261 18.886 2.48384 18.886 2.48384C16.8527 2.40185 15.0981 2.77901 13.6223 3.33654C11.425 3.15616 10.0312 3.54971 10.0312 3.54971C10.0312 3.54971 10.6379 4.27122 10.8674 4.68116C10.9002 4.73036 10.8838 4.79595 10.8347 4.82875C9.45723 5.77982 8.47335 6.84569 8.0798 7.27204C7.63706 7.33763 6.89916 7.43601 6.24324 7.59999C6.21044 7.59999 6.19405 7.58359 6.21044 7.5508C6.86636 5.9766 7.58787 5.10751 7.58787 5.10751C7.58787 5.10751 3.35721 8.10833 2.55371 13.5196C2.55371 13.5196 2.89806 12.5686 4.07871 11.1091C4.09511 11.0927 4.12791 11.0927 4.12791 11.1091C4.45587 11.8471 4.84942 12.503 5.02979 12.8145C4.37388 13.864 3.93113 14.9955 3.65237 15.9301C3.63597 15.9629 3.61957 15.9957 3.58678 15.9957C2.6029 16.3729 2.35693 16.7172 2.35693 16.7172C2.50451 17.242 2.81608 17.7503 3.19323 18.2258C3.22602 18.275 3.24242 18.3242 3.24242 18.3734C3.14403 20.6855 3.88194 22.1941 3.88194 22.1941C4.04592 21.3906 4.37388 20.6035 4.80022 19.8656C4.81662 19.8328 4.84942 19.8328 4.88221 19.8492C5.84969 20.6199 6.84996 21.2923 7.24351 21.5218C7.45669 22.0466 8.03061 23.4076 8.81771 24.8014C8.83411 24.8342 8.81771 24.867 8.78492 24.8834C7.85023 25.2278 6.88276 25.3753 5.99727 25.1622C5.99727 25.1622 7.06313 26.4904 10.3427 27.0643C11.261 28.1466 12.3597 29.0321 13.6551 29.3436C13.6551 29.3436 13.2779 28.9173 13.1796 27.3595C13.1796 27.3267 13.196 27.2939 13.2287 27.2939C14.0322 27.3103 15.1473 27.3267 16.1476 27.2447C16.5083 27.5235 17.279 28.1466 18.0497 28.5401C18.0825 28.5565 18.0825 28.6057 18.0497 28.6385C16.7215 29.442 15.8196 29.524 15.8196 29.524C21.8705 29.6552 25.5108 25.7033 25.5108 25.7033C24.5105 26.3592 23.3627 26.7692 22.2148 27.0151C22.182 27.0151 22.1492 26.9823 22.1492 26.9495C22.3624 25.9165 22.2968 24.9162 22.2804 24.5718C23.7234 24.2111 24.9697 23.5716 25.9043 22.9156C25.9207 22.8992 25.9535 22.8992 25.9699 22.9156C26.3635 23.178 26.6914 23.4896 27.0194 23.9815C27.0194 23.9815 27.6425 23.096 27.8557 21.0299C29.4135 18.9965 29.6431 16.914 29.6431 16.914C29.2987 17.5863 28.7084 18.0291 28.0197 18.3406ZM14.9833 5.50106C15.0325 5.41907 15.1145 5.36988 15.2129 5.35348C17.1642 5.09111 18.9516 5.05832 19.6403 5.07471C20.8866 5.91101 22.1164 7.00967 23.0839 8.04274C23.1495 8.10833 23.1659 8.22311 23.1167 8.3051C22.428 9.38737 21.4113 10.4368 20.9686 10.896C19.3288 11.2895 17.5742 11.8471 16.164 12.3226C16.0328 12.3718 15.8688 12.3226 15.7868 12.1914C14.7046 10.6336 14.0322 9.28898 13.7535 8.78064C14.0486 7.48521 14.4422 6.32096 14.9833 5.50106ZM5.42334 15.4218C5.25937 14.4051 5.16098 13.3229 5.14458 12.8309C5.11178 11.6995 5.29216 10.6828 5.50533 9.74812C5.53813 9.60054 5.62012 9.45296 5.7349 9.35457C6.34163 8.79704 7.44028 7.81317 8.1454 7.37042C8.80131 6.94408 10.6215 6.35375 11.3758 6.14058C11.5234 6.09138 11.6709 6.15698 11.7529 6.28816C11.8349 6.45214 11.9333 6.59972 12.0317 6.7637C12.622 7.68198 13.2779 8.48548 13.5403 8.81344C13.1796 10.2565 13.0156 11.8798 12.95 13.2409C12.95 13.3721 12.868 13.4868 12.7368 13.536C10.8347 14.2739 9.40804 14.8643 8.9161 15.0774C7.62067 15.1266 6.37442 15.3562 5.53813 15.5038C5.48894 15.5202 5.42334 15.471 5.42334 15.4218ZM10.7527 23.9487C10.6379 24.0143 10.5067 24.0143 10.3919 23.9323C9.42443 23.2436 8.29298 22.3745 7.3255 21.489C6.76797 20.5216 6.32523 19.2917 6.03007 18.2422C6.01367 18.1766 6.03007 18.0947 6.06286 18.0455C7.12873 16.7336 8.42416 15.6842 8.94889 15.2906C10.1623 15.8153 11.5562 16.2745 12.7696 16.6844C12.9008 16.7336 12.9828 16.832 12.9992 16.9632C13.1632 19.1277 13.5731 20.8823 13.6715 21.5546C13.2287 22.0466 12.0317 23.1616 10.7527 23.9487ZM24.1006 21.8006C23.1823 23.342 22.4772 24.2767 22.2476 24.5554C21.936 24.9818 21.1653 26.1132 19.9683 27.2447C19.8863 27.3103 19.7879 27.3595 19.6895 27.3595C18.1809 27.4251 16.7707 27.3103 16.2296 27.1955C15.7704 26.9987 14.6882 26.5232 13.4091 25.8181C13.2943 25.7525 13.2288 25.6377 13.2451 25.5065C13.3107 24.5226 13.6223 23.1124 13.9011 21.6202C14.5898 20.4068 15.2949 19.0457 16.0328 17.9143C16.1148 17.7995 16.2624 17.7339 16.3935 17.7831C18.5909 18.3898 20.5094 18.849 21.2965 19.0129C22.3624 20.2428 23.3955 21.1119 24.0842 21.653C24.117 21.7022 24.117 21.7514 24.1006 21.8006ZM25.6912 18.8654C25.6584 18.931 25.5928 18.9801 25.5272 18.9801C23.8546 19.1769 22.0836 18.9473 21.3949 18.8326C20.2471 17.6847 19.0172 16.4221 18.0989 15.307C18.0005 15.1922 18.0005 15.0282 18.0825 14.9135C19.378 13.0933 20.575 11.6503 21.0834 11.0764C22.5264 10.7648 23.953 10.486 24.9205 10.4368C24.9861 10.4368 25.068 10.4696 25.1008 10.5352C26.3471 12.2734 27.249 13.946 27.5277 14.5527C26.9538 16.0941 26.2651 17.6519 25.6912 18.8654Z" fill="white"/>
</svg>
